<svg viewBox="0 0 360 200" fill="none" xmlns="http://www.w3.org/2000/svg">
  <g clip-path="url(#clip0_2009_2205)">
    <rect width="360" height="200" fill="#FF627B" />
    <rect width="360" height="200" fill="url(#paint0_radial_2009_2205)" />
    <path
      d="M51.8594 70.7969H49.457V61.9102H47.7969V69.9375H45.4531V53.3164H47.7969V59.8984H49.457V53.0234H51.8594V70.7969ZM37.25 54.9961H39.75V64.2832C41.4167 64.2376 42.9857 64.0716 44.457 63.7852L44.7109 65.9336C42.6081 66.2982 40.5247 66.474 38.4609 66.4609H37.25V54.9961ZM67.8359 59.8398H70.3555V61.8906H67.8359V70.7578H65.3359V53.0234H67.8359V59.8398ZM53.6172 65.7773C55.7331 64.7161 57.3607 63.4596 58.5 62.0078C59.6393 60.556 60.3262 58.8438 60.5605 56.8711H54.6328V54.8398H63.0898C63.0768 57.6719 62.4388 60.1719 61.1758 62.3398C59.9193 64.5078 57.8685 66.2917 55.0234 67.6914L53.6172 65.7773ZM85.0234 59.957H91.957V61.9492H75.6875V59.957H82.5625V58.3164H85.0234V59.957ZM76.3906 57.4766C77.4193 57.418 78.3177 57.2878 79.0859 57.0859C79.8542 56.8776 80.4759 56.6237 80.9512 56.3242C81.4264 56.0247 81.7552 55.6992 81.9375 55.3477H77.1914V53.4531H90.4531V55.3477H85.6582C85.834 55.7057 86.1562 56.0345 86.625 56.334C87.0938 56.6335 87.7155 56.8841 88.4902 57.0859C89.265 57.2878 90.1732 57.418 91.2148 57.4766L90.4336 59.332C88.7474 59.2148 87.3379 58.9023 86.2051 58.3945C85.0723 57.8802 84.2747 57.2194 83.8125 56.4121C83.3438 57.2194 82.543 57.8802 81.4102 58.3945C80.2773 58.9023 78.8711 59.2148 77.1914 59.332L76.3906 57.4766ZM77.1719 63.7656H82.543V62.4375H85.043V63.7656H90.4141V65.6211H77.1719V63.7656ZM78.3242 68.4922C78.3177 67.737 78.7865 67.1576 79.7305 66.7539C80.681 66.3503 82.0286 66.1484 83.7734 66.1484C85.5117 66.1484 86.8594 66.3503 87.8164 66.7539C88.7734 67.1576 89.2552 67.737 89.2617 68.4922C89.2552 69.2539 88.7767 69.8366 87.8262 70.2402C86.8822 70.6504 85.5508 70.8555 83.832 70.8555C82.0612 70.8555 80.6973 70.6536 79.7402 70.25C78.7897 69.8529 78.3177 69.2669 78.3242 68.4922ZM80.8828 68.4922C80.8828 68.7396 81.1237 68.9219 81.6055 69.0391C82.0872 69.1562 82.8099 69.2148 83.7734 69.2148C84.7435 69.2148 85.4661 69.1562 85.9414 69.0391C86.4167 68.9219 86.6576 68.7396 86.6641 68.4922C86.6576 68.2448 86.4232 68.069 85.9609 67.9648C85.4987 67.8607 84.7695 67.8021 83.7734 67.7891C82.7839 67.8021 82.0547 67.8607 81.5859 67.9648C81.1172 68.069 80.8828 68.2448 80.8828 68.4922ZM97.7773 54.2734C98.6823 54.2734 99.4863 54.5339 100.189 55.0547C100.899 55.569 101.456 56.3047 101.859 57.2617C102.263 58.2188 102.465 59.332 102.465 60.6016C102.465 61.8776 102.263 62.9974 101.859 63.9609C101.456 64.918 100.899 65.6569 100.189 66.1777C99.4863 66.6921 98.6823 66.9492 97.7773 66.9492C96.8724 66.9492 96.0618 66.6921 95.3457 66.1777C94.6361 65.6569 94.0827 64.918 93.6855 63.9609C93.2884 62.9974 93.0898 61.8776 93.0898 60.6016C93.0898 59.332 93.2884 58.2188 93.6855 57.2617C94.0827 56.3047 94.6361 55.569 95.3457 55.0547C96.0618 54.5339 96.8724 54.2734 97.7773 54.2734ZM95.4922 60.6016C95.4922 61.4674 95.5866 62.2096 95.7754 62.8281C95.9642 63.4401 96.2311 63.9056 96.5762 64.2246C96.9212 64.5371 97.3216 64.6901 97.7773 64.6836C98.2396 64.6901 98.6432 64.5371 98.9883 64.2246C99.3333 63.9056 99.6003 63.4401 99.7891 62.8281C99.9844 62.2096 100.082 61.4674 100.082 60.6016C100.082 59.7357 99.9844 58.9967 99.7891 58.3848C99.6003 57.7728 99.3333 57.3105 98.9883 56.998C98.6432 56.679 98.2396 56.5195 97.7773 56.5195C97.3216 56.5195 96.9212 56.679 96.5762 56.998C96.2311 57.3105 95.9642 57.776 95.7754 58.3945C95.5866 59.0065 95.4922 59.7422 95.4922 60.6016ZM104.516 53.0234H107.016V59.7227H109.633V61.793H107.016V70.7969H104.516V53.0234ZM124.379 58.4922H126.781V60.5234H124.379V66.3047H121.879V53.043H124.379V58.4922ZM110.277 54.8984H114.32V53.0039H116.801V54.8984H120.824V56.8711H110.277V54.8984ZM111.137 60.9336C111.137 60.2565 111.322 59.6576 111.693 59.1367C112.071 58.6159 112.595 58.2122 113.266 57.9258C113.936 57.6393 114.698 57.4961 115.551 57.4961C116.404 57.4961 117.159 57.6393 117.816 57.9258C118.48 58.2122 118.998 58.6159 119.369 59.1367C119.74 59.6576 119.926 60.2565 119.926 60.9336C119.926 61.6107 119.74 62.2064 119.369 62.7207C119.005 63.2285 118.49 63.6257 117.826 63.9121C117.162 64.1921 116.404 64.332 115.551 64.332C114.691 64.332 113.926 64.1921 113.256 63.9121C112.592 63.6257 112.071 63.2253 111.693 62.7109C111.322 62.1966 111.137 61.6042 111.137 60.9336ZM112.855 65.2891H115.336V68.4922H125.023V70.4844H112.855V65.2891ZM113.578 60.9336C113.572 61.4154 113.747 61.7865 114.105 62.0469C114.464 62.3073 114.945 62.4375 115.551 62.4375C116.163 62.4375 116.651 62.3073 117.016 62.0469C117.38 61.7865 117.562 61.4154 117.562 60.9336C117.562 60.4518 117.38 60.0775 117.016 59.8105C116.651 59.5371 116.163 59.3971 115.551 59.3906C114.945 59.3971 114.464 59.5371 114.105 59.8105C113.747 60.0775 113.572 60.4518 113.578 60.9336ZM137.875 57.4961C137.868 59.0846 138.119 60.5332 138.627 61.8418C139.135 63.1504 139.958 64.1693 141.098 64.8984L139.75 66.832C138.324 65.9727 137.299 64.5436 136.674 62.5449C136.342 63.5931 135.902 64.5176 135.355 65.3184C134.809 66.1191 134.145 66.7539 133.363 67.2227L131.84 65.3867C133.083 64.6185 133.995 63.541 134.574 62.1543C135.16 60.7676 135.453 59.2539 135.453 57.6133V54.5469H137.875V57.4961ZM139.223 59.0195H141.527V53.2773H143.852V69.9766H141.527V61.0508H139.223V59.0195ZM145.199 53.0234H147.582V70.7969H145.199V53.0234ZM164.867 70.7969H162.523V53.0234H164.867V70.7969ZM149.184 65.3477C150.954 64.306 152.273 63.1243 153.139 61.8027C154.011 60.4746 154.535 58.9219 154.711 57.1445H150.219V55.1328H157.191C157.191 55.9987 157.136 56.8581 157.025 57.7109H158.793V53.4141H161.156V70.0156H158.793V64.1562H156.273V62.1445H158.793V59.7227H156.615C156.186 61.2396 155.486 62.61 154.516 63.834C153.552 65.0514 152.263 66.1419 150.648 67.1055L149.184 65.3477ZM180.766 59.8398H183.285V61.8906H180.766V70.7578H178.266V53.0234H180.766V59.8398ZM166.547 65.7773C168.663 64.7161 170.29 63.4596 171.43 62.0078C172.569 60.556 173.256 58.8438 173.49 56.8711H167.562V54.8398H176.02C176.007 57.6719 175.368 60.1719 174.105 62.3398C172.849 64.5078 170.798 66.2917 167.953 67.6914L166.547 65.7773ZM51.9375 98.7969H49.5938V81.0234H51.9375V98.7969ZM36.2539 93.3477C38.0247 92.306 39.3431 91.1243 40.209 89.8027C41.0814 88.4746 41.6055 86.9219 41.7812 85.1445H37.2891V83.1328H44.2617C44.2617 83.9987 44.2064 84.8581 44.0957 85.7109H45.8633V81.4141H48.2266V98.0156H45.8633V92.1562H43.3438V90.1445H45.8633V87.7227H43.6855C43.2559 89.2396 42.556 90.61 41.5859 91.834C40.6224 93.0514 39.3333 94.1419 37.7188 95.1055L36.2539 93.3477ZM70.0234 91.668H53.8125V89.6758H60.668V87.3125H63.1289V89.6758H70.0234V91.668ZM54.6523 86.4336C55.9154 86.2708 56.9961 85.9616 57.8945 85.5059C58.793 85.0501 59.4701 84.5065 59.9258 83.875C60.388 83.2435 60.6224 82.5859 60.6289 81.9023V81.3164H63.168V81.9023C63.1615 82.612 63.3828 83.2826 63.832 83.9141C64.2878 84.5391 64.9648 85.0762 65.8633 85.5254C66.7682 85.9681 67.8685 86.2708 69.1641 86.4336L68.207 88.3672C66.7161 88.1458 65.4271 87.7357 64.3398 87.1367C63.2591 86.5312 62.4355 85.7793 61.8691 84.8809C61.2962 85.7793 60.4661 86.5312 59.3789 87.1367C58.2917 87.7422 57.0091 88.1523 55.5312 88.3672L54.6523 86.4336ZM55.6094 92.918H68.0508V98.7969H65.5703V94.8516H55.6094V92.918ZM90.5898 98.8359H88.0703V81.0234H90.5898V98.8359ZM76.2344 88.6016C76.2344 87.332 76.4329 86.2188 76.8301 85.2617C77.2337 84.3047 77.7904 83.569 78.5 83.0547C79.2161 82.5339 80.0299 82.2734 80.9414 82.2734C81.8333 82.2734 82.6309 82.5339 83.334 83.0547C84.0436 83.569 84.6003 84.3047 85.0039 85.2617C85.4076 86.2188 85.6094 87.332 85.6094 88.6016C85.6094 89.8776 85.4076 90.9974 85.0039 91.9609C84.6003 92.918 84.0436 93.6569 83.334 94.1777C82.6309 94.6921 81.8333 94.9492 80.9414 94.9492C80.0299 94.9492 79.2161 94.6921 78.5 94.1777C77.7904 93.6569 77.2337 92.918 76.8301 91.9609C76.4329 90.9974 76.2344 89.8776 76.2344 88.6016ZM78.6367 88.6016C78.6367 89.4674 78.7311 90.2096 78.9199 90.8281C79.1087 91.4401 79.3757 91.9056 79.7207 92.2246C80.0723 92.5371 80.4792 92.6901 80.9414 92.6836C81.3906 92.6901 81.7845 92.5371 82.123 92.2246C82.4681 91.9056 82.735 91.4401 82.9238 90.8281C83.1126 90.2096 83.207 89.4674 83.207 88.6016C83.207 87.7357 83.1126 86.9967 82.9238 86.3848C82.735 85.7728 82.4681 85.3105 82.123 84.998C81.7845 84.679 81.3906 84.5195 80.9414 84.5195C80.4792 84.5195 80.0723 84.679 79.7207 84.998C79.3757 85.3105 79.1087 85.7728 78.9199 86.3848C78.7311 86.9967 78.6367 87.7357 78.6367 88.6016ZM97.8945 82.2734C98.6888 82.2734 99.4082 82.4818 100.053 82.8984C100.704 83.3151 101.234 83.9141 101.645 84.6953C102.061 85.4766 102.328 86.3945 102.445 87.4492H105.531V81.0234H107.992V98.8359H105.531V89.4414H102.475C102.39 90.5612 102.143 91.5378 101.732 92.3711C101.322 93.2044 100.785 93.8424 100.121 94.2852C99.4635 94.7279 98.7214 94.9492 97.8945 94.9492C96.9961 94.9492 96.1953 94.6921 95.4922 94.1777C94.7956 93.6569 94.252 92.918 93.8613 91.9609C93.4707 90.9974 93.2786 89.8776 93.2852 88.6016C93.2786 87.332 93.4707 86.2188 93.8613 85.2617C94.252 84.3047 94.7956 83.569 95.4922 83.0547C96.1953 82.5339 96.9961 82.2734 97.8945 82.2734ZM95.668 88.6016C95.668 89.4674 95.7591 90.2096 95.9414 90.8281C96.1237 91.4401 96.3841 91.9056 96.7227 92.2246C97.0612 92.5371 97.4518 92.6901 97.8945 92.6836C98.3438 92.6901 98.7344 92.5371 99.0664 92.2246C99.4049 91.9056 99.6654 91.4401 99.8477 90.8281C100.03 90.2096 100.121 89.4674 100.121 88.6016C100.121 87.7357 100.03 86.9967 99.8477 86.3848C99.6654 85.7728 99.4049 85.3105 99.0664 84.998C98.7344 84.679 98.3438 84.5195 97.8945 84.5195C97.4518 84.5195 97.0612 84.679 96.7227 84.998C96.3841 85.3105 96.1237 85.776 95.9414 86.3945C95.7591 87.0065 95.668 87.7422 95.668 88.6016ZM117.172 85.8672C117.165 86.8503 117.331 87.8171 117.67 88.7676C118.008 89.7116 118.513 90.5645 119.184 91.3262C119.854 92.0814 120.668 92.6576 121.625 93.0547L120.277 95.0078C119.262 94.5781 118.389 93.9499 117.66 93.123C116.931 92.2897 116.358 91.3164 115.941 90.2031C115.525 91.4076 114.945 92.4688 114.203 93.3867C113.467 94.2982 112.589 94.9883 111.566 95.457L110.141 93.4844C111.091 93.0612 111.902 92.446 112.572 91.6387C113.249 90.8314 113.757 89.9264 114.096 88.9238C114.441 87.9147 114.613 86.8958 114.613 85.8672V84.7734H110.844V82.7422H120.883V84.7734H117.172V85.8672ZM122.641 81.0234H125.16V98.7969H122.641V81.0234ZM141.996 87.8203H129.574V81.6484H132.055V85.8672H141.996V87.8203ZM127.543 89.7344H143.812V91.6875H127.543V89.7344ZM129.418 93.1328H131.918V96.4141H142.113V98.4062H129.418V93.1328ZM163.715 83.2305V83.7676C163.715 84.5098 163.686 85.2227 163.627 85.9062C163.568 86.5833 163.454 87.3125 163.285 88.0938L160.805 87.8594C160.967 87.1107 161.075 86.4271 161.127 85.8086C161.186 85.1901 161.221 84.5195 161.234 83.7969H151.312V81.8438H163.715V83.2305ZM149.496 89.0508H155.551V85.75H158.012V89.0508H165.629V91.0234H149.496V89.0508ZM150.453 96.8047C151.703 96.6549 152.761 96.3717 153.627 95.9551C154.493 95.5319 155.141 95.0339 155.57 94.4609C156 93.8815 156.215 93.276 156.215 92.6445V92.0977H158.734V92.6445C158.734 93.276 158.949 93.8815 159.379 94.4609C159.809 95.0404 160.46 95.5384 161.332 95.9551C162.211 96.3717 163.285 96.6549 164.555 96.8047L163.656 98.7188C162.204 98.5299 160.954 98.1621 159.906 97.6152C158.858 97.0749 158.051 96.3913 157.484 95.5645C156.918 96.3913 156.111 97.0749 155.062 97.6152C154.021 98.1621 152.777 98.5299 151.332 98.7188L150.453 96.8047ZM178.539 92.332H172.094V90.0273H178.539V92.332Z"
      fill="white" />
    <path
      d="M236.177 161.861L230.269 147.615V161.896H227V144.138H231.827L237.652 158.024L243.477 144.138H248.304V161.896H245.035V147.615L239.113 161.896H236.191L236.177 161.868V161.861Z"
      fill="white" />
    <path
      d="M267.274 153.079C267.274 157.997 262.849 162 257.405 162C254.718 162 252.37 160.767 251.116 158.696C249.71 156.369 249.856 153.28 251.49 150.136C251.49 147.864 252.917 145.156 257.072 144.2C259.358 143.674 261.671 144.193 263.569 145.655C265.847 147.4 267.267 150.247 267.26 153.086L267.274 153.079ZM264.414 153.079C264.414 151.099 263.389 149.042 261.803 147.823C260.951 147.172 259.559 146.479 257.737 146.895C255.431 147.421 254.177 148.744 254.378 150.434C254.551 151.895 255.888 153.37 258.104 153.37V156.141C255.93 156.141 254.233 155.296 253.104 154.077C252.903 155.303 253.062 156.404 253.596 157.29C254.337 158.516 255.722 159.223 257.412 159.223C261.276 159.223 264.414 156.466 264.414 153.072V153.079Z"
      fill="white" />
    <path
      d="M284.467 161.861C284.321 161.861 284.176 161.875 284.037 161.875C282.029 161.875 280.367 161.245 279.037 160.234C277.686 161.293 276.19 161.861 274.646 161.868H274.611C272.824 161.868 271.467 161.432 270.587 160.58C269.825 159.846 269.438 158.835 269.438 157.581C269.438 155.171 271.384 152.685 275.117 152.172C274.833 147.719 276.765 144.394 279.882 144.034C281.274 143.875 282.465 144.38 283.227 145.468C285.014 147.975 284.017 152.962 282.174 156.369C281.814 157.034 281.419 157.65 280.997 158.204C281.87 158.807 282.971 159.16 284.328 159.105L284.46 161.875L284.467 161.861ZM277.112 158.177C276.433 157.186 275.92 156.064 275.588 154.894C273.337 155.178 272.298 156.425 272.298 157.574C272.298 158.239 272.471 158.482 272.603 158.606C272.928 158.918 273.656 159.091 274.632 159.084C275.567 159.084 276.398 158.71 277.112 158.17V158.177ZM279.64 155.067C281.357 151.888 281.71 148.197 280.872 147.026C280.755 146.86 280.637 146.77 280.381 146.77C280.332 146.77 280.277 146.77 280.221 146.784C278.732 146.957 277.756 149.346 277.998 152.234C278.088 153.336 278.421 154.742 279.099 155.995C279.328 155.642 279.515 155.33 279.646 155.081L279.64 155.067Z"
      fill="white" />
    <path
      d="M286.261 161.889V149.187H289.357V161.889H286.261ZM286.288 145.918C286.288 145.094 286.981 144.422 287.833 144.422C288.685 144.422 289.37 145.087 289.37 145.918C289.37 146.749 288.685 147.414 287.833 147.414C286.981 147.414 286.288 146.749 286.288 145.918Z"
      fill="white" />
    <path
      d="M296.629 161.862L290.569 149.187H293.969L293.983 149.215L298.367 159.202L302.765 149.18H306.166L306.138 149.243L300.092 161.875H296.65L296.636 161.848L296.629 161.862Z"
      fill="white" />
    <path
      d="M320.724 157.935C319.547 159.541 317.192 161.37 314.595 161.841C314.068 161.938 313.57 161.979 313.099 161.979C310.28 161.979 308.583 160.386 307.897 158.717C307.897 158.71 307.897 158.703 307.89 158.696C306.997 158.807 306.027 158.89 304.968 158.932L304.857 156.162C305.812 156.127 306.685 156.051 307.489 155.954C307.676 153.724 309.019 151.493 311.194 150.129C312.309 149.43 313.299 149.229 314.034 149.139C315.28 148.972 316.43 149.423 317.116 150.337C317.857 151.327 317.919 152.685 317.275 153.966C316.762 154.984 315.218 157.02 310.806 158.156C311.409 159.05 312.551 159.389 314.075 159.119C315.793 158.814 317.545 157.484 318.39 156.342L320.724 157.948V157.935ZM310.501 155.358C312.912 154.679 314.234 153.675 314.705 152.747C314.899 152.366 314.892 152.068 314.802 151.951C314.754 151.881 314.636 151.867 314.546 151.867C314.491 151.867 314.449 151.867 314.421 151.874C313.93 151.937 313.383 152.048 312.752 152.449C311.54 153.211 310.806 154.292 310.501 155.358Z"
      fill="white" />
  </g>
  <defs>
    <radialGradient id="paint0_radial_2009_2205" cx="0" cy="0" r="1" gradientUnits="userSpaceOnUse"
      gradientTransform="translate(180 100) rotate(90) scale(100 180)">
      <stop offset="0.245192" stop-color="#FF627B" />
      <stop offset="1" stop-color="#FFDCE1" />
    </radialGradient>
    <clipPath id="clip0_2009_2205">
      <rect width="360" height="200" fill="white" />
    </clipPath>
  </defs>
</svg>
