<svg width="360" height="56" viewBox="0 0 360 56" fill="none" xmlns="http://www.w3.org/2000/svg">
  <rect width="360" height="56" fill="white" />
  <path
    d="M25.096 25.5549C26.6188 25.7303 27.3742 26.7873 27.7534 27.7917C28.9565 26.2126 30.6877 25.3693 32.7239 25.878C33.4231 26.0987 33.9921 26.4869 34.4117 27.0067C34.8699 27.5746 35.097 28.2329 35.2081 28.856C35.4253 30.0735 35.2514 31.4957 35.0359 32.7389C34.7955 34.1259 34.5361 35.1605 34.3892 36.1788C34.2464 37.1688 35.5411 37.3329 36.4221 36.7642L38.0442 38.8935C38.0442 38.8935 36.5547 39.7242 35.9958 39.8621C34.971 40.1148 33.5609 40.1012 32.2092 39.1183C31.5054 38.6062 31.3645 37.8379 31.3257 37.4024C31.1751 35.7079 31.7803 33.9643 32.0674 32.3084C32.28 31.0819 32.3752 30.0433 32.2425 29.2991C32.0167 28.0334 30.9539 28.4491 30.3052 29.2543C29.641 30.0787 29.0484 31.3529 28.5558 32.7926C28.2505 33.6848 27.7984 35.4278 27.7984 35.4278L27.136 38.754L27.1351 38.7558V38.7575H24.1792L24.8514 34.8737C24.8514 34.8737 25.0568 33.4589 25.1224 32.7255C25.2459 31.3446 25.2463 30.0695 25.05 29.1603C24.722 27.6423 23.3593 28.3232 22.4914 29.3008C21.738 30.1495 21.1197 31.4175 20.6382 32.8374C20.1645 34.2345 19.8597 35.6684 19.6735 36.7642C19.5725 37.3587 19.4838 37.9565 19.4269 38.5562V38.5606H16.429L17.8173 30.4054L15.6667 26.6173L19.6506 25.3964L20.6382 27.1992C21.8274 25.5549 23.7205 25.3964 25.096 25.5549ZM40.5328 27.1992C41.8686 26.2326 43.5944 25.7079 45.3389 26.125C47.0836 26.5425 48.2806 27.7665 48.8906 29.1988C49.5007 30.6315 49.5763 32.3601 49.0609 34.0637C48.5453 35.7671 47.5048 37.2284 46.1686 38.1954C44.8327 39.1622 43.1062 39.6878 41.3615 39.2704C39.617 38.8529 38.4207 37.6281 37.8108 36.1958C37.2007 34.7631 37.1252 33.0352 37.6405 31.3318C38.156 29.6283 39.1966 28.1662 40.5328 27.1992ZM64.6904 16.0194C65.467 15.9224 66.1383 16.1988 66.6023 16.637C67.0129 17.0249 67.2428 17.5141 67.3821 17.9385C67.5277 18.3823 67.6127 18.8769 67.6551 19.3823C67.8215 21.3675 67.3789 24.1349 66.3606 26.4347C65.5312 28.3077 64.0228 30.8245 62.2727 33.0719C62.4341 34.1798 62.6329 35.5537 63.3617 36.4938C63.6958 36.3434 63.9729 36.0826 64.2169 35.8315C64.3812 35.6622 64.5006 35.5128 64.5006 35.5128C64.7907 35.7028 66.9085 37.1589 66.9085 37.1589C66.4218 37.7276 65.8875 38.2627 65.2305 38.6716C64.735 38.98 63.9565 39.3469 63.0329 39.2722C61.9966 39.1883 61.2059 38.5932 60.6808 37.7595C60.3316 37.2049 60.0492 36.5518 59.8237 35.8368C59.1364 36.5037 58.425 37.1017 57.7044 37.5742C56.5298 38.3443 55.0297 38.983 53.4785 38.6331C52.0297 38.3062 51.1058 37.3863 50.6264 36.305C50.1677 35.27 50.0968 34.0714 50.2369 32.9466C50.5109 30.7489 51.6782 28.2236 53.5186 26.9047C54.8098 25.9797 56.072 25.5101 57.2905 25.4645C58.0552 25.4359 58.7337 25.5774 59.3188 25.8082C59.5354 24.1845 59.8832 22.5941 60.3687 21.1832C60.9611 19.4619 61.8136 17.8361 63.0388 16.8035C63.459 16.4495 64.0131 16.1041 64.6904 16.0194ZM91.5123 25.5853C94.9287 24.8989 97.0765 28.8512 95.4584 31.3112C94.7373 32.4073 93.4889 33.147 92.3831 33.6421C91.1704 34.185 89.8734 34.5625 88.5614 34.846C88.7603 35.3674 89.0596 35.7051 89.3862 35.9246C89.8008 36.2031 90.3657 36.3654 91.0564 36.3614C92.4724 36.3529 94.1768 35.6348 95.3038 34.3232L97.6667 36.0221C96.0116 37.9484 93.4664 39.0969 91.0759 39.1111C89.864 39.1183 88.6359 38.8317 87.6074 38.1408C86.5639 37.4397 85.8328 36.3927 85.5086 35.068C85.1739 33.6995 85.4209 32.263 85.9235 30.9988C86.43 29.7253 87.2354 28.5218 88.167 27.576C89.0711 26.6583 90.2353 25.8419 91.5123 25.5853ZM71.6941 28.173C71.2121 29.515 70.7965 30.8805 70.4994 32.2672C70.2658 33.3576 70.1296 34.3958 70.1736 35.1888C70.2217 36.0534 70.801 36.1991 71.0571 36.0935C71.3132 35.9878 71.8672 35.6175 71.8672 35.6175C72.1702 35.8776 73.8408 37.5411 73.8408 37.5411C73.4737 37.8896 73.0598 38.1933 72.5952 38.4273C71.7389 38.8584 70.3835 39.2016 68.9182 38.4908C68.2048 38.1444 67.7809 37.577 67.5387 37.0264C67.3012 36.4866 67.2031 35.8912 67.1717 35.3275C67.1092 34.2005 67.3006 32.905 67.5504 31.7391C67.8783 30.2086 68.3365 28.7013 68.8732 27.2215C69.4365 27.3925 71.6941 28.173 71.6941 28.173ZM83.8157 25.7137C83.8157 25.7137 84.4831 26.8383 84.5108 26.91C84.9165 27.9606 84.9288 28.561 84.5108 29.5937C84.3709 29.9395 84.3216 30.1099 84.0997 30.6336C83.6573 31.678 83.0678 33.002 82.4187 34.248C81.7864 35.4621 81.0363 36.7226 80.2505 37.5563C79.8779 37.9516 79.3339 38.4307 78.6243 38.6313C78.2318 38.7423 77.7748 38.7708 77.3054 38.6367C76.8442 38.5049 76.4883 38.2496 76.2252 37.9708C74.6042 36.2523 74.5869 33.3831 74.5511 31.2423C74.527 29.7958 74.5982 28.3518 74.7184 26.91L77.6909 27.0359C77.6243 28.424 77.5337 29.8098 77.5569 31.2002C77.5809 32.6376 77.6215 34.1823 78.1547 35.554C78.6198 34.9944 79.1577 34.1155 79.7045 33.0656C80.912 30.7475 81.8237 29.7887 81.9289 28.8739C82.0342 27.9591 81.4595 27.3974 81.3955 27.2215C81.728 27.0632 83.8157 25.7137 83.8157 25.7137ZM44.5375 28.7754C43.9317 28.6306 43.1738 28.7703 42.3948 29.334C41.6159 29.8976 40.9099 30.8328 40.5485 32.0273C40.1871 33.2217 40.2703 34.3449 40.6258 35.1798C40.9814 36.015 41.5572 36.4749 42.1629 36.6201C42.7687 36.765 43.5275 36.6244 44.3066 36.0606C45.0853 35.497 45.7915 34.5625 46.1529 33.3682C46.5144 32.1736 46.4312 31.0498 46.0756 30.2147C45.72 29.3795 45.1433 28.9205 44.5375 28.7754ZM55.3718 29.069L55.3728 29.0699C54.3732 29.7862 53.4408 31.5116 53.2231 33.2581C52.9974 35.0693 54.4867 36.8997 56.6019 35.5128C57.884 34.6721 59.0112 32.8336 59.3188 31.3318C59.7854 29.0538 58.0494 27.1509 55.3718 29.069ZM92.1931 28.266C91.5484 28.1755 90.6821 28.4561 89.9775 29.1714C89.2956 29.8637 88.7394 30.9988 88.7394 31.9602C89.467 31.77 90.3042 31.5119 91.0622 31.1725C91.9987 30.7532 92.6127 30.3043 92.8831 29.8934C93.4067 29.0977 92.9192 28.4654 92.1931 28.266ZM64.6239 19.2919C64.1301 19.8972 63.6485 20.8091 63.2355 22.0094C62.5525 23.9942 62.2332 26.0821 62.1073 28.156C62.7145 27.1527 63.221 26.2012 63.575 25.4018C64.401 23.5361 64.9027 21.3096 64.6239 19.2919ZM71.5992 22.6547C72.7846 22.6549 73.603 23.5609 73.603 24.598C73.6026 25.61 72.7054 26.431 71.5992 26.4312C70.4929 26.4309 69.5958 25.61 69.5953 24.598C69.5953 23.5609 70.4138 22.655 71.5992 22.6547Z"
    fill="#FF627B" />
  <path fill-rule="evenodd" clip-rule="evenodd"
    d="M258.857 20.75C258.055 20.75 257.261 20.908 256.52 21.2149C255.779 21.5218 255.106 21.9716 254.539 22.5387C253.972 23.1058 253.522 23.7791 253.215 24.52C252.908 25.261 252.75 26.0551 252.75 26.8571C252.75 27.6591 252.908 28.4533 253.215 29.1942C253.522 29.9352 253.972 30.6084 254.539 31.1755C255.106 31.7426 255.779 32.1925 256.52 32.4994C257.261 32.8063 258.055 32.9643 258.857 32.9643C260.477 32.9643 262.03 32.3209 263.176 31.1755C264.321 30.0302 264.964 28.4769 264.964 26.8571C264.964 25.2374 264.321 23.6841 263.176 22.5387C262.03 21.3934 260.477 20.75 258.857 20.75ZM255.946 19.8291C256.869 19.4468 257.858 19.25 258.857 19.25C260.875 19.25 262.81 20.0515 264.236 21.4781C265.663 22.9047 266.464 24.8396 266.464 26.8571C266.464 28.6231 265.85 30.3258 264.74 31.6797L268.53 35.4697L267.47 36.5303L263.68 32.7403C262.326 33.8502 260.623 34.4643 258.857 34.4643C257.858 34.4643 256.869 34.2675 255.946 33.8852C255.023 33.5029 254.184 32.9426 253.478 32.2362C252.772 31.5298 252.211 30.6912 251.829 29.7683C251.447 28.8453 251.25 27.8561 251.25 26.8571C251.25 25.8582 251.447 24.869 251.829 23.946C252.211 23.0231 252.772 22.1845 253.478 21.4781C254.184 20.7717 255.023 20.2114 255.946 19.8291Z"
    fill="#250F09" />
  <path
    d="M296 19C297.768 19 299.464 19.7292 300.715 21.0273C301.965 22.3257 302.668 24.0876 302.668 25.9238C302.668 28.9811 303.356 31.3221 303.818 32.1494C303.936 32.3597 303.999 32.5984 304 32.8418C304.001 33.0852 303.94 33.325 303.823 33.5361C303.707 33.7471 303.539 33.9228 303.336 34.0449C303.133 34.1671 302.902 34.2311 302.668 34.2314H299.267C299.113 35.013 298.704 35.7153 298.108 36.2197C297.513 36.7242 296.768 37 296 37C295.232 36.9999 294.488 36.7241 293.893 36.2197C293.297 35.7153 292.888 35.013 292.734 34.2314H289.333C289.099 34.2313 288.868 34.1669 288.665 34.0449C288.462 33.9228 288.293 33.7473 288.177 33.5361C288.06 33.325 287.999 33.0853 288 32.8418C288.001 32.5984 288.064 32.3597 288.182 32.1494C288.644 31.3221 289.333 28.982 289.333 25.9238C289.333 24.0876 290.035 22.3257 291.285 21.0273C292.536 19.7291 294.232 19.0001 296 19ZM294.115 34.2314C294.253 34.6361 294.508 34.9864 294.846 35.2344C295.183 35.4823 295.587 35.616 296 35.6162C296.414 35.6161 296.818 35.4823 297.155 35.2344C297.493 34.9864 297.748 34.6361 297.886 34.2314H294.115ZM296 20.3848C294.585 20.3849 293.229 20.9683 292.229 22.0068C291.228 23.0455 290.666 24.4549 290.666 25.9238C290.666 29.0459 289.975 31.7008 289.333 32.8467H302.668C302.025 31.6982 301.335 29.0433 301.335 25.9238C301.335 24.4549 300.773 23.0455 299.772 22.0068C298.772 20.9681 297.415 20.3848 296 20.3848Z"
    fill="#250F09" />
  <path
    d="M296 19C297.768 19 299.464 19.7292 300.715 21.0273C301.965 22.3257 302.668 24.0876 302.668 25.9238C302.668 28.9811 303.356 31.3221 303.818 32.1494C303.936 32.3597 303.999 32.5984 304 32.8418C304.001 33.0852 303.94 33.325 303.823 33.5361C303.707 33.7471 303.539 33.9228 303.336 34.0449C303.133 34.1671 302.902 34.2311 302.668 34.2314H299.267C299.113 35.013 298.704 35.7153 298.108 36.2197C297.513 36.7242 296.768 37 296 37C295.232 36.9999 294.488 36.7241 293.893 36.2197C293.297 35.7153 292.888 35.013 292.734 34.2314H289.333C289.099 34.2313 288.868 34.1669 288.665 34.0449C288.462 33.9228 288.293 33.7473 288.177 33.5361C288.06 33.325 287.999 33.0853 288 32.8418C288.001 32.5984 288.064 32.3597 288.182 32.1494C288.644 31.3221 289.333 28.982 289.333 25.9238C289.333 24.0876 290.035 22.3257 291.285 21.0273C292.536 19.7291 294.232 19.0001 296 19ZM294.115 34.2314C294.253 34.6361 294.508 34.9864 294.846 35.2344C295.183 35.4823 295.587 35.616 296 35.6162C296.414 35.6161 296.818 35.4823 297.155 35.2344C297.493 34.9864 297.748 34.6361 297.886 34.2314H294.115ZM296 20.3848C294.585 20.3849 293.229 20.9683 292.229 22.0068C291.228 23.0455 290.666 24.4549 290.666 25.9238C290.666 29.0459 289.975 31.7008 289.333 32.8467H302.668C302.025 31.6982 301.335 29.0433 301.335 25.9238C301.335 24.4549 300.773 23.0455 299.772 22.0068C298.772 20.9681 297.415 20.3848 296 20.3848Z"
    stroke="#250F09" />
  <path
    d="M306 9.25C310.832 9.25 314.75 13.1675 314.75 18C314.75 22.8325 310.832 26.75 306 26.75C301.168 26.75 297.25 22.8325 297.25 18C297.25 13.1675 301.168 9.25 306 9.25Z"
    fill="#FF627B" />
  <path
    d="M306 9.25C310.832 9.25 314.75 13.1675 314.75 18C314.75 22.8325 310.832 26.75 306 26.75C301.168 26.75 297.25 22.8325 297.25 18C297.25 13.1675 301.168 9.25 306 9.25Z"
    stroke="white" stroke-width="1.5" />
  <path
    d="M305.785 22.1172C303.975 22.1172 302.68 21.1328 302.645 19.7031H304.18C304.221 20.3828 304.9 20.834 305.785 20.8281C306.717 20.834 307.391 20.3184 307.391 19.5625C307.391 18.8008 306.734 18.2559 305.633 18.25H304.871V17.0781H305.633C306.535 17.0781 307.162 16.5742 307.156 15.8359C307.162 15.1211 306.623 14.6406 305.797 14.6406C305 14.6406 304.314 15.0859 304.285 15.8008H302.82C302.855 14.377 304.15 13.3984 305.809 13.3984C307.531 13.3984 308.645 14.4531 308.633 15.7539C308.645 16.7031 308.012 17.3887 307.086 17.582V17.6523C308.281 17.8105 308.961 18.5781 308.949 19.6445C308.961 21.0801 307.619 22.1172 305.785 22.1172Z"
    fill="white" />
  <path
    d="M330.684 18.4731C330.879 18.4731 331.073 18.482 331.265 18.4946C333.141 18.573 335.59 18.9016 337.716 19.981C338.996 20.631 340.177 21.5622 341.036 22.8882C341.897 24.2178 342.405 25.9003 342.405 28.0005C342.405 30.1004 341.897 31.7823 341.036 33.1118C340.177 34.4378 338.996 35.369 337.716 36.019C335.59 37.0983 333.141 37.426 331.265 37.5044C331.073 37.5171 330.879 37.5269 330.684 37.5269C330.631 37.5269 330.578 37.5229 330.525 37.522C330.43 37.523 330.336 37.5269 330.245 37.5269V37.5142C325.398 37.2739 321.596 33.0731 321.596 28.0005C321.596 22.9277 325.397 18.7251 330.245 18.4849V18.4731C330.336 18.4731 330.43 18.476 330.525 18.4771C330.578 18.4761 330.631 18.4731 330.684 18.4731ZM330.523 19.9771C326.441 20.0671 323.096 23.5882 323.096 28.0005C323.096 32.4125 326.441 35.9319 330.523 36.022C330.758 36.0192 331.003 36.0118 331.258 36.0005C335.15 35.6905 338.271 32.2623 338.271 28.0005C338.271 23.7385 335.15 20.3085 331.258 19.9985C331.003 19.9872 330.758 19.9798 330.523 19.9771ZM337.276 21.4468C338.825 23.1603 339.771 25.4715 339.771 28.0005C339.771 30.5285 338.825 32.8382 337.277 34.5513C338.272 34.0063 339.142 33.2772 339.777 32.2964C340.461 31.24 340.905 29.8494 340.905 28.0005C340.905 26.1513 340.461 24.7601 339.777 23.7036C339.142 22.7223 338.272 21.9918 337.276 21.4468ZM331.236 23.7544C331.898 23.8121 332.534 24.0379 333.083 24.4106L333.35 24.6099L333.407 24.6606C333.677 24.9288 333.705 25.363 333.46 25.6646C333.215 25.9657 332.785 26.0281 332.467 25.8198L332.405 25.7739L332.24 25.6519C331.846 25.3848 331.38 25.2405 330.901 25.2397C329.543 25.2406 328.361 26.4294 328.361 28.0005C328.362 29.5717 329.544 30.7609 330.902 30.7612C331.462 30.7612 331.983 30.5639 332.409 30.2231L332.471 30.1782C332.79 29.9719 333.22 30.0372 333.463 30.3403C333.722 30.6637 333.669 31.1362 333.346 31.395L333.085 31.5864C332.458 32.0107 331.709 32.2612 330.902 32.2612C328.626 32.2609 326.862 30.3078 326.861 28.0005C326.861 25.693 328.626 23.7401 330.902 23.7397H330.904L331.236 23.7544Z"
    fill="#250F09" />
</svg>
