<svg width="360" height="56" viewBox="0 0 360 56" fill="none" xmlns="http://www.w3.org/2000/svg">
  <mask id="path-1-inside-1_4005_18924" fill="white">
    <path d="M0.5 0H360.5V56H0.5V0Z" />
  </mask>
  <path d="M0.5 0H360.5V56H0.5V0Z" fill="white" />
  <path d="M0.5 0V1H360.5V0V-1H0.5V0Z" fill="#F0EEEE" mask="url(#path-1-inside-1_4005_18924)" />
  <path fill-rule="evenodd" clip-rule="evenodd"
    d="M44.504 11.176L45.512 10.42L45.5 10.408L46.508 11.164L53.612 16.492L54.284 16.996V30.172H46.724V23.176H44.288V30.172H36.728V17.008L37.4 16.504L44.504 11.176Z"
    fill="#FF627B" />
  <path
    d="M32.8477 41.041V44.5H31.6982V36.7227H32.8262V39.623H32.9014C33.1753 38.9893 33.7231 38.5918 34.6309 38.5918C35.8286 38.5918 36.6289 39.333 36.6289 40.7939V44.5H35.4795V40.9336C35.4795 40.0742 35.0176 39.5801 34.2441 39.5801C33.4331 39.5801 32.8477 40.1118 32.8477 41.041ZM40.4854 44.6182C38.8311 44.6182 37.7515 43.415 37.7568 41.6104C37.7515 39.7949 38.8311 38.5918 40.4854 38.5918C42.1289 38.5918 43.2031 39.7949 43.2031 41.6104C43.2031 43.415 42.1289 44.6182 40.4854 44.6182ZM38.9062 41.6104C38.9062 42.7222 39.4165 43.6621 40.4854 43.6621C41.5381 43.6621 42.043 42.7222 42.043 41.6104C42.043 40.4932 41.5381 39.5425 40.4854 39.5371C39.4165 39.5425 38.9062 40.4932 38.9062 41.6104ZM44.3311 44.5V38.667H45.4375V39.623H45.502C45.749 38.9731 46.3237 38.5918 47.0918 38.5918C47.8706 38.5918 48.4131 38.9731 48.6602 39.623H48.7246C48.9985 38.9946 49.6323 38.5918 50.4756 38.5918C51.5283 38.5918 52.2749 39.2524 52.2803 40.5898V44.5H51.1309V40.6973C51.1309 39.9077 50.6367 39.5801 50.0352 39.5801C49.2993 39.5801 48.875 40.085 48.875 40.7832V44.5H47.7363V40.6328C47.7363 39.9937 47.3013 39.5801 46.6729 39.5801C46.0283 39.5801 45.4805 40.1172 45.4805 40.9014V44.5H44.3311ZM56.1797 44.6182C54.4609 44.6182 53.4028 43.4312 53.4082 41.6211C53.4028 39.8271 54.4771 38.5918 56.1045 38.5918C57.4312 38.5918 58.6934 39.4136 58.6934 41.5244V41.9326H54.5469C54.5791 43.0444 55.2344 43.6729 56.1904 43.6729C56.8403 43.6729 57.2646 43.3936 57.458 43.0391H58.6182C58.3604 43.9844 57.4634 44.6182 56.1797 44.6182ZM54.5522 41.0732H57.5654C57.5654 40.187 56.9907 39.5317 56.1152 39.5371C55.1968 39.5317 54.6006 40.2515 54.5522 41.0732Z"
    fill="#FF627B" />
  <path
    d="M142.563 12.5863H143.907V14.4039H144.955V23.6135H143.231V25.2876H141.543V26.6475H136.542V28.2081H135.126V29.4975H133.181V30.175H131.345V26.7025H128.817V25.2876H127.569V23.5621H126.045V14.368H127.594V12.6413H128.978V10.825H142.563V12.5863ZM129.317 14.4768H127.881V23.4522H128.893V24.867H133.182V26.7025H133.181V27.662H134.708V26.3727H135.597V24.812H141.214V23.4522H143.119V14.4218H141.432V12.6604H129.317V14.4768ZM134.634 16.4544H136.258V14.901H138.624V16.4544H140.142V18.2899H140.071V19.8087H138.694V21.2917H137.282V22.7041H136.081V24.1166H134.527V22.7041H133.044V21.2917H131.915V19.8087H130.396V18.2899H130.291V16.4544H131.738V14.7946H134.634V16.4544Z"
    fill="#9C9EB0" />
  <path
    d="M129.666 39.1719C129.44 38.0977 128.522 37.5176 127.496 37.5176C126.089 37.5176 124.999 38.6025 124.993 40.6113C124.999 42.6147 126.089 43.6997 127.496 43.7051C128.522 43.6997 129.435 43.125 129.666 42.0615H130.633C130.354 43.6514 129.075 44.6074 127.496 44.6074C125.498 44.6074 124.053 43.0713 124.059 40.6113C124.053 38.1514 125.498 36.6152 127.496 36.6152C129.07 36.6152 130.343 37.5552 130.633 39.1719H129.666ZM132.792 40.998V44.5H131.868V36.7227H132.792V39.5801H132.867C133.141 38.9785 133.662 38.5918 134.586 38.5918C135.778 38.5918 136.573 39.2954 136.573 40.7939V44.5H135.649V40.8584C135.649 39.9399 135.145 39.4189 134.307 39.4189C133.437 39.4189 132.792 39.9883 132.792 40.998ZM137.776 42.8457C137.776 41.5083 138.958 41.2021 139.968 41.127C140.344 41.1001 141.284 41.0464 141.547 41.041V40.5684C141.547 39.8271 141.106 39.3975 140.226 39.3975C139.49 39.3975 139.044 39.7358 138.915 40.1816H137.948C138.066 39.2417 138.979 38.5918 140.269 38.5918C141.031 38.5918 142.465 38.8174 142.46 40.6543V44.5H141.547V43.7051H141.504C141.311 44.0972 140.779 44.6343 139.764 44.6396C138.657 44.6343 137.776 43.9844 137.776 42.8457ZM138.7 42.8887C138.706 43.5063 139.216 43.8179 139.925 43.8125C140.967 43.8179 141.547 43.1196 141.547 42.3838V41.7983C141.273 41.8145 140.354 41.8843 140.075 41.9004C139.237 41.9541 138.706 42.2495 138.7 42.8887ZM146.488 38.667V39.4404H145.264V42.8242C145.258 43.5708 145.634 43.6943 146.026 43.6943C146.193 43.6943 146.44 43.6782 146.574 43.6729V44.5322C146.429 44.5537 146.204 44.5752 145.93 44.5752C145.151 44.5752 144.334 44.0918 144.329 43.0605V39.4404H143.448V38.667H144.329V37.2705H145.264V38.667H146.488Z"
    fill="#9C9EB0" />
  <path
    d="M224.367 17.449H222.658V18.5965H221.374V20.0223H219.948V21.3182H218.899V23.119H222.657V21.7596H225.378V23.119H226.672V21.824H228.162V23.119H231.648V21.1883H230.547V19.8279H229.186V18.6619H227.994V16.6707H226.66V12.6346H221.511V10.9236H229.182V12.6346H228.369V16.6707H229.704V18.6619H230.895V19.8279H232.255V21.1883H233.357V22.077H233.863V27.3553H232.891V28.8455H231.208V30.076H220.195V28.8455H218.834V27.4734H217.137V21.3182H218.238V19.7635H219.664V18.4676H220.894V16.9119H222.658V12.6688H224.367V17.449ZM226.672 21.0067H225.117V19.2977H226.672V21.0067Z"
    fill="#9C9EB0" />
  <path
    d="M215.166 39.1504C214.833 38.1514 214.076 37.5176 212.964 37.5176C211.589 37.5176 210.499 38.6025 210.493 40.6113C210.499 42.6147 211.589 43.6997 213.028 43.7051C214.339 43.6997 215.247 42.8296 215.263 41.4492H213.232V40.6006H216.208V41.4385C216.208 43.3667 214.881 44.6074 213.028 44.6074C210.95 44.6074 209.553 43.0713 209.559 40.6113C209.553 38.1514 210.966 36.6152 212.964 36.6152C214.607 36.6152 215.875 37.6465 216.165 39.1504H215.166ZM219.925 44.6182C218.335 44.6235 217.261 43.4204 217.261 41.6104C217.261 39.7896 218.335 38.5918 219.925 38.5918C221.509 38.5918 222.573 39.7896 222.567 41.6104C222.573 43.4204 221.509 44.6235 219.925 44.6182ZM218.185 41.6104C218.19 42.7759 218.738 43.8018 219.925 43.8018C221.101 43.8018 221.644 42.7759 221.644 41.6104C221.644 40.4502 221.101 39.4082 219.925 39.4082C218.738 39.4082 218.19 40.4502 218.185 41.6104ZM226.166 44.6182C224.576 44.6235 223.502 43.4204 223.502 41.6104C223.502 39.7896 224.576 38.5918 226.166 38.5918C227.75 38.5918 228.814 39.7896 228.809 41.6104C228.814 43.4204 227.75 44.6235 226.166 44.6182ZM224.426 41.6104C224.431 42.7759 224.979 43.8018 226.166 43.8018C227.342 43.8018 227.885 42.7759 227.885 41.6104C227.885 40.4502 227.342 39.4082 226.166 39.4082C224.979 39.4082 224.431 40.4502 224.426 41.6104ZM232.225 44.6182C230.769 44.6235 229.743 43.4526 229.743 41.5996C229.743 39.752 230.769 38.5918 232.235 38.5918C233.369 38.5918 233.723 39.2793 233.922 39.5908H233.986V36.7227H234.921V44.5H234.019V43.6084H233.922C233.718 43.9307 233.336 44.6235 232.225 44.6182ZM230.678 41.5781C230.678 42.8188 231.247 43.791 232.354 43.791C233.422 43.791 234.013 42.8887 234.019 41.5781C234.013 40.2837 233.438 39.4189 232.354 39.4189C231.231 39.4189 230.678 40.3589 230.678 41.5781ZM239.766 40.1816C239.637 39.6982 239.266 39.3813 238.584 39.376C237.864 39.3813 237.354 39.7681 237.349 40.2568C237.354 40.6436 237.666 40.9067 238.348 41.0732L239.218 41.2881C240.26 41.5352 240.77 42.0562 240.775 42.8672C240.77 43.877 239.948 44.6235 238.487 44.6182C237.177 44.6235 236.398 44.0381 236.242 42.9746H237.209C237.316 43.5439 237.73 43.8179 238.466 43.8125C239.298 43.8179 239.819 43.4688 239.819 42.9209C239.819 42.5073 239.524 42.2388 238.863 42.083L237.982 41.8789C236.967 41.6426 236.425 41.0894 236.425 40.3105C236.425 39.3115 237.3 38.5918 238.584 38.5918C239.792 38.5918 240.55 39.2363 240.668 40.1816H239.766Z"
    fill="#9C9EB0" />
  <path fill-rule="evenodd" clip-rule="evenodd"
    d="M311.788 12.2877C312.772 11.3031 314.108 10.75 315.5 10.75C316.892 10.75 318.228 11.3031 319.212 12.2877C320.197 13.2723 320.75 14.6076 320.75 16C320.75 17.3924 320.197 18.7277 319.212 19.7123C318.228 20.6969 316.892 21.25 315.5 21.25C314.108 21.25 312.772 20.6969 311.788 19.7123C310.803 18.7277 310.25 17.3924 310.25 16C310.25 14.6076 310.803 13.2723 311.788 12.2877ZM315.5 12.25C314.505 12.25 313.552 12.6451 312.848 13.3483C312.145 14.0516 311.75 15.0054 311.75 16C311.75 16.9946 312.145 17.9484 312.848 18.6516C313.552 19.3549 314.505 19.75 315.5 19.75C316.495 19.75 317.448 19.3549 318.152 18.6516C318.855 17.9484 319.25 16.9946 319.25 16C319.25 15.0054 318.855 14.0516 318.152 13.3483C317.448 12.6451 316.495 12.25 315.5 12.25ZM309.497 25.6648C307.983 26.7886 307.25 28.0931 307.25 29C307.25 29.4142 306.914 29.75 306.5 29.75C306.086 29.75 305.75 29.4142 305.75 29C305.75 27.4069 306.917 25.7114 308.603 24.4602C310.327 23.1808 312.732 22.25 315.5 22.25C318.268 22.25 320.673 23.1808 322.397 24.4602C324.083 25.7114 325.25 27.4069 325.25 29C325.25 29.4142 324.914 29.75 324.5 29.75C324.086 29.75 323.75 29.4142 323.75 29C323.75 28.0931 323.017 26.7886 321.503 25.6648C320.027 24.5692 317.932 23.75 315.5 23.75C313.068 23.75 310.973 24.5692 309.497 25.6648Z"
    fill="#9C9EB0" />
  <path
    d="M308.741 44.5V38.667H309.633V39.5801H309.708C309.95 38.957 310.514 38.5918 311.276 38.5918C312.039 38.5918 312.56 38.957 312.834 39.5801H312.898C313.194 38.9785 313.812 38.5918 314.649 38.5918C315.686 38.5918 316.433 39.2256 316.433 40.6006V44.5H315.509V40.6113C315.503 39.752 314.966 39.4189 314.327 39.4189C313.516 39.4189 313.054 39.9668 313.049 40.708V44.5H312.114V40.5146C312.12 39.8594 311.647 39.4189 310.976 39.4189C310.277 39.4189 309.665 40.0098 309.665 40.8584V44.5H308.741ZM318.291 46.6914C318.092 46.686 317.894 46.6807 317.775 46.6699V45.8428C317.872 45.8535 318.082 45.8589 318.227 45.8643C318.603 45.8589 318.919 45.8374 319.226 44.9834L319.397 44.543L317.238 38.667H318.248L319.838 43.2969H319.902L321.492 38.667H322.502L320.031 45.3379C319.688 46.2563 319.118 46.686 318.291 46.6914Z"
    fill="#9C9EB0" />
</svg>
