<svg width="360" height="28" viewBox="0 0 360 28" fill="none" xmlns="http://www.w3.org/2000/svg">
  <path opacity="0.44" fill-rule="evenodd" clip-rule="evenodd"
    d="M352 12L352.46 12.3066C353.11 12.7398 353.5 13.4691 353.5 14.25C353.5 15.0309 353.11 15.7602 352.46 16.1934L352 16.5V12ZM329 8.5H349C350.105 8.5 351 9.39543 351 10.5V18C351 19.1046 350.105 20 349 20H329C327.895 20 327 19.1046 327 18V10.5C327 9.39543 327.895 8.5 329 8.5ZM329 9.5C328.448 9.5 328 9.94772 328 10.5V18C328 18.5523 328.448 19 329 19H349C349.552 19 350 18.5523 350 18V10.5C350 9.94772 349.552 9.5 349 9.5H329Z"
    fill="#250F09" />
  <path fill-rule="evenodd" clip-rule="evenodd"
    d="M330 10.5H345V18H330C329.448 18 329 17.5523 329 17V11.5C329 10.9477 329.448 10.5 330 10.5Z"
    fill="#250F09" />
  <path d="M166.203 18H167.715V9.54492H166.209L164 11.0918V12.5449L166.104 11.0684H166.203V18Z"
    fill="#250F09" />
  <path
    d="M173.07 18.2051C175.221 18.2051 176.498 16.5234 176.498 13.6758C176.498 12.6035 176.293 11.7012 175.9 11.0039C175.332 9.91992 174.354 9.33398 173.117 9.33398C171.277 9.33398 169.977 10.5703 169.977 12.3047C169.977 13.9336 171.148 15.1172 172.76 15.1172C173.75 15.1172 174.553 14.6543 174.951 13.8516H174.969C174.969 13.8516 174.992 13.8516 174.998 13.8516C175.01 13.8516 175.051 13.8516 175.051 13.8516C175.051 15.7852 174.318 16.9395 173.082 16.9395C172.355 16.9395 171.793 16.541 171.6 15.9023H170.094C170.346 17.291 171.523 18.2051 173.07 18.2051ZM173.123 13.916C172.15 13.916 171.459 13.2246 171.459 12.2578C171.459 11.3145 172.186 10.5938 173.129 10.5938C174.072 10.5938 174.799 11.3262 174.799 12.2812C174.799 13.2246 174.09 13.916 173.123 13.916Z"
    fill="#250F09" />
  <path
    d="M179.152 17.1035C179.709 17.1035 180.09 16.7051 180.09 16.1777C180.09 15.6445 179.709 15.252 179.152 15.252C178.602 15.252 178.215 15.6445 178.215 16.1777C178.215 16.7051 178.602 17.1035 179.152 17.1035ZM179.152 12.709C179.709 12.709 180.09 12.3164 180.09 11.7891C180.09 11.2559 179.709 10.8633 179.152 10.8633C178.602 10.8633 178.215 11.2559 178.215 11.7891C178.215 12.3164 178.602 12.709 179.152 12.709Z"
    fill="#250F09" />
  <path
    d="M185.059 18.2109C187.08 18.2109 188.281 16.5703 188.281 13.7754C188.281 10.9688 187.062 9.33398 185.059 9.33398C183.049 9.33398 181.83 10.9688 181.83 13.7637C181.83 16.5703 183.031 18.2109 185.059 18.2109ZM185.059 16.957C183.986 16.957 183.359 15.8438 183.359 13.7637C183.359 11.7012 183.998 10.5938 185.059 10.5938C186.119 10.5938 186.752 11.6953 186.752 13.7637C186.752 15.8438 186.131 16.957 185.059 16.957Z"
    fill="#250F09" />
  <path
    d="M189.852 12.0176V12.041H191.27V12.0176C191.27 11.1562 191.867 10.5762 192.752 10.5762C193.584 10.5762 194.193 11.1152 194.193 11.8594C194.193 12.457 193.906 12.8965 192.752 14.0684L189.934 16.9512V18H195.805V16.7168H192.008V16.6172L193.777 14.8418C195.213 13.4238 195.676 12.6738 195.676 11.7656C195.676 10.3535 194.469 9.33398 192.799 9.33398C191.064 9.33398 189.852 10.4355 189.852 12.0176Z"
    fill="#250F09" />
  <path
    d="M8 14.5C8.55228 14.5 9 14.9477 9 15.5V18C9 18.5523 8.55228 19 8 19H7C6.44772 19 6 18.5523 6 18V15.5C6 14.9477 6.44772 14.5 7 14.5H8ZM12.5 13C13.0523 13 13.5 13.4477 13.5 14V18C13.5 18.5523 13.0523 19 12.5 19H11.5C10.9477 19 10.5 18.5523 10.5 18V14C10.5 13.4477 10.9477 13 11.5 13H12.5ZM17 11C17.5523 11 18 11.4477 18 12V18C18 18.5523 17.5523 19 17 19H16C15.4477 19 15 18.5523 15 18V12C15 11.4477 15.4477 11 16 11H17ZM21.5 9C22.0523 9 22.5 9.44772 22.5 10V18C22.5 18.5523 22.0523 19 21.5 19H20.5C19.9477 19 19.5 18.5523 19.5 18V10C19.5 9.44772 19.9477 9 20.5 9H21.5Z"
    fill="#250F09" />
  <path
    d="M31.9844 11.7539C31.9023 10.9629 31.2109 10.5117 30.2383 10.5117C29.2012 10.5117 28.5449 11.0449 28.5391 11.7656C28.5391 12.5684 29.4121 12.8848 30.0859 13.043L30.9062 13.2656C31.9902 13.5293 33.3496 14.1211 33.3555 15.6562C33.3496 17.0918 32.207 18.1406 30.2031 18.1406C28.3047 18.1406 27.1094 17.1914 27.0273 15.6445H28.3164C28.3926 16.5703 29.2129 17.0098 30.2031 17.0156C31.2871 17.0098 32.0723 16.4648 32.0781 15.6328C32.0723 14.8945 31.3691 14.5957 30.4727 14.3555L29.4648 14.0859C28.0996 13.7109 27.2559 13.0195 27.25 11.8359C27.2559 10.3711 28.5566 9.39844 30.2734 9.39844C31.9961 9.39844 33.1973 10.3828 33.2383 11.7539H31.9844ZM37.255 18.1289C35.38 18.1289 34.2257 16.834 34.2316 14.8594C34.2257 12.9023 35.3976 11.5547 37.173 11.5547C38.6202 11.5547 39.9972 12.4512 39.9972 14.7539V15.1992H35.4738C35.5089 16.4121 36.2238 17.0977 37.2667 17.0977C37.9757 17.0977 38.4386 16.793 38.6495 16.4062H39.9152C39.6339 17.4375 38.6554 18.1289 37.255 18.1289ZM35.4796 14.2617H38.7667C38.7667 13.2949 38.1398 12.5801 37.1847 12.5859C36.1827 12.5801 35.5323 13.3652 35.4796 14.2617ZM41.1194 18V11.6367H42.3264V12.6445H42.3967C42.6311 11.9648 43.2698 11.5371 44.0139 11.543C44.1663 11.5371 44.4123 11.5547 44.5413 11.5664V12.7617C44.4358 12.7383 44.1428 12.6855 43.885 12.6914C43.0178 12.6855 42.3733 13.2891 42.3733 14.1211V18H41.1194ZM51.0189 11.6367L48.7103 18H47.3627L45.0541 11.6367H46.4017L48.0072 16.5234H48.0658L49.6712 11.6367H51.0189ZM51.9184 18V11.6367H53.1723V18H51.9184ZM51.7544 9.91406C51.7602 9.50391 52.1177 9.17578 52.5513 9.17578C52.979 9.17578 53.3364 9.50391 53.3364 9.91406C53.3364 10.3242 52.979 10.6582 52.5513 10.6523C52.1177 10.6582 51.7602 10.3242 51.7544 9.91406ZM57.2711 18.1289C55.4137 18.1289 54.2887 16.7637 54.2945 14.8477C54.2887 12.9082 55.4547 11.5547 57.2477 11.5547C58.7008 11.5547 59.7496 12.4102 59.8844 13.6992H58.6656C58.5367 13.1016 58.0621 12.6035 57.2711 12.5977C56.2398 12.6035 55.5484 13.459 55.5484 14.8125C55.5484 16.207 56.2223 17.0684 57.2711 17.0625C57.9801 17.0684 58.5074 16.6699 58.6656 15.9844H59.8844C59.7496 17.2207 58.7711 18.1289 57.2711 18.1289ZM63.6902 18.1289C61.8152 18.1289 60.6609 16.834 60.6667 14.8594C60.6609 12.9023 61.8327 11.5547 63.6081 11.5547C65.0554 11.5547 66.4323 12.4512 66.4323 14.7539V15.1992H61.9089C61.9441 16.4121 62.6589 17.0977 63.7019 17.0977C64.4109 17.0977 64.8737 16.793 65.0847 16.4062H66.3503C66.0691 17.4375 65.0905 18.1289 63.6902 18.1289ZM61.9148 14.2617H65.2019C65.2019 13.2949 64.5749 12.5801 63.6198 12.5859C62.6179 12.5801 61.9675 13.3652 61.9148 14.2617Z"
    fill="#250F09" />
  <path
    d="M79.8081 10.4922C82.2189 10.4923 84.5375 11.424 86.2846 13.0948C86.4162 13.2238 86.6265 13.2222 86.7561 13.0912L88.0137 11.8145C88.0793 11.748 88.1159 11.658 88.1154 11.5644C88.1148 11.4707 88.0772 11.3811 88.0108 11.3155C83.4251 6.89485 76.1905 6.89485 71.6047 11.3155C71.5383 11.3811 71.5006 11.4706 71.5 11.5643C71.4994 11.6579 71.5359 11.748 71.6015 11.8145L72.8595 13.0912C72.989 13.2224 73.1994 13.224 73.3309 13.0948C75.0783 11.4239 77.3972 10.4922 79.8081 10.4922ZM79.8081 14.6459C81.1327 14.6458 82.41 15.141 83.3918 16.0353C83.5246 16.1622 83.7338 16.1595 83.8632 16.0291L85.1195 14.7524C85.1856 14.6854 85.2223 14.5946 85.2214 14.5002C85.2204 14.4058 85.1819 14.3157 85.1144 14.2501C82.1245 11.4526 77.4943 11.4526 74.5045 14.2501C74.4369 14.3157 74.3984 14.4058 74.3975 14.5003C74.3966 14.5947 74.4334 14.6855 74.4997 14.7524L75.7556 16.0291C75.885 16.1595 76.0942 16.1622 76.227 16.0353C77.2082 15.1416 78.4845 14.6464 79.8081 14.6459ZM82.2223 17.6929C82.2895 17.6266 82.3265 17.5353 82.3245 17.4406C82.3226 17.3459 82.2819 17.2563 82.2121 17.1928C80.8244 16.0121 78.7919 16.0121 77.4042 17.1928C77.3343 17.2562 77.2936 17.3459 77.2916 17.4405C77.2896 17.5352 77.3265 17.6265 77.3937 17.6929L79.567 19.8987C79.6307 19.9635 79.7175 20 79.8081 20C79.8988 20 79.9856 19.9635 80.0493 19.8987L82.2223 17.6929Z"
    fill="#250F09" />
</svg>
