<svg viewBox="0 0 24 24" fill="none" xmlns="http://www.w3.org/2000/svg">
  <path
    d="M12 3C13.7682 3 15.4644 3.72924 16.7148 5.02734C17.9653 6.32573 18.668 8.08763 18.668 9.92383C18.668 12.9811 19.3558 15.3221 19.8184 16.1494C19.9364 16.3597 19.9992 16.5984 20 16.8418C20.0008 17.0852 19.9399 17.325 19.8232 17.5361C19.7066 17.7471 19.5386 17.9228 19.3359 18.0449C19.1332 18.1671 18.9024 18.2311 18.668 18.2314H15.2666C15.1128 19.013 14.7036 19.7153 14.1084 20.2197C13.5132 20.7242 12.7683 21 12 21C11.2319 20.9999 10.4876 20.7241 9.89258 20.2197C9.29741 19.7153 8.88822 19.013 8.73438 18.2314H5.33301C5.09857 18.2313 4.86789 18.1669 4.66504 18.0449C4.46215 17.9228 4.29349 17.7473 4.17676 17.5361C4.06004 17.325 3.9992 17.0853 4 16.8418C4.00084 16.5984 4.06359 16.3597 4.18164 16.1494C4.6442 15.3221 5.33294 12.982 5.33301 9.92383C5.33301 8.08763 6.0347 6.32573 7.28516 5.02734C8.53551 3.72909 10.2318 3.00011 12 3ZM10.1152 18.2314C10.253 18.6361 10.5082 18.9864 10.8457 19.2344C11.1832 19.4823 11.5866 19.616 12 19.6162C12.4136 19.6161 12.8176 19.4823 13.1553 19.2344C13.4927 18.9864 13.7479 18.6361 13.8857 18.2314H10.1152ZM12 4.38477C10.5854 4.38488 9.22878 4.96825 8.22852 6.00684C7.22815 7.04554 6.66602 8.45487 6.66602 9.92383C6.66595 13.0459 5.97472 15.7008 5.33301 16.8467H18.668C18.0246 15.6982 17.335 13.0433 17.335 9.92383C17.335 8.45489 16.7728 7.04554 15.7725 6.00684C14.7721 4.96813 13.4147 4.38477 12 4.38477Z"
    fill="#250F09" />
  <path
    d="M12 3C13.7682 3 15.4644 3.72924 16.7148 5.02734C17.9653 6.32573 18.668 8.08763 18.668 9.92383C18.668 12.9811 19.3558 15.3221 19.8184 16.1494C19.9364 16.3597 19.9992 16.5984 20 16.8418C20.0008 17.0852 19.9399 17.325 19.8232 17.5361C19.7066 17.7471 19.5386 17.9228 19.3359 18.0449C19.1332 18.1671 18.9024 18.2311 18.668 18.2314H15.2666C15.1128 19.013 14.7036 19.7153 14.1084 20.2197C13.5132 20.7242 12.7683 21 12 21C11.2319 20.9999 10.4876 20.7241 9.89258 20.2197C9.29741 19.7153 8.88822 19.013 8.73438 18.2314H5.33301C5.09857 18.2313 4.86789 18.1669 4.66504 18.0449C4.46215 17.9228 4.29349 17.7473 4.17676 17.5361C4.06004 17.325 3.9992 17.0853 4 16.8418C4.00084 16.5984 4.06359 16.3597 4.18164 16.1494C4.6442 15.3221 5.33294 12.982 5.33301 9.92383C5.33301 8.08763 6.0347 6.32573 7.28516 5.02734C8.53551 3.72909 10.2318 3.00011 12 3ZM10.1152 18.2314C10.253 18.6361 10.5082 18.9864 10.8457 19.2344C11.1832 19.4823 11.5866 19.616 12 19.6162C12.4136 19.6161 12.8176 19.4823 13.1553 19.2344C13.4927 18.9864 13.7479 18.6361 13.8857 18.2314H10.1152ZM12 4.38477C10.5854 4.38488 9.22878 4.96825 8.22852 6.00684C7.22815 7.04554 6.66602 8.45487 6.66602 9.92383C6.66595 13.0459 5.97472 15.7008 5.33301 16.8467H18.668C18.0246 15.6982 17.335 13.0433 17.335 9.92383C17.335 8.45489 16.7728 7.04554 15.7725 6.00684C14.7721 4.96813 13.4147 4.38477 12 4.38477Z"
    stroke="#250F09" />
</svg>
