<svg width="18" height="18" viewBox="0 0 18 18" fill="none" xmlns="http://www.w3.org/2000/svg">
<path d="M8.20464 14.9546L8.20464 4.39014L4.42241 8.17236C4.12952 8.46526 3.65476 8.46526 3.36186 8.17236C3.06901 7.87947 3.06898 7.4047 3.36186 7.11182L7.62944 2.84424L7.76714 2.72021C8.10065 2.44705 8.51977 2.2955 8.95464 2.29541L8.97319 2.29736C9.40115 2.30148 9.81333 2.45041 10.1421 2.71924L10.2789 2.84326L14.5474 7.11182L14.5992 7.16846C14.8395 7.46303 14.822 7.89774 14.5474 8.17236C14.2728 8.44698 13.8381 8.46446 13.5435 8.22412L13.4869 8.17236L9.70464 4.39014L9.70464 14.9546C9.70464 15.3688 9.36885 15.7046 8.95464 15.7046C8.54042 15.7046 8.20464 15.3688 8.20464 14.9546Z" fill="#FF627B"/>
</svg>
