<svg width="18" height="18" viewBox="0 0 18 18" fill="none" xmlns="http://www.w3.org/2000/svg">
<path d="M13.5606 10.4453L10.8884 8.99982L13.5606 7.55435C13.7112 7.47289 13.7627 7.29265 13.6758 7.15147L13.0463 6.1299C12.9594 5.98891 12.7669 5.94044 12.6164 6.0219L9.94416 7.46736V4.57662C9.94416 4.4137 9.80321 4.28174 9.62943 4.28174H8.37048C8.1967 4.28174 8.05575 4.4137 8.05575 4.57662V7.46755L5.38355 6.02208C5.23296 5.94062 5.0405 5.98909 4.95361 6.13008L4.32414 7.15147C4.23725 7.29246 4.28876 7.47289 4.43934 7.55435L7.11154 8.99982L4.43934 10.4453C4.28876 10.5267 4.23725 10.7072 4.32414 10.8482L4.95361 11.8697C5.0405 12.0107 5.23296 12.059 5.38355 11.9777L8.05575 10.5323V13.423C8.05575 13.5859 8.1967 13.7179 8.37048 13.7179H9.62943C9.80321 13.7179 9.94416 13.5859 9.94416 13.423V10.5321L12.6164 11.9776C12.7669 12.059 12.9594 12.0107 13.0463 11.8696L13.6758 10.848C13.7627 10.707 13.7112 10.5267 13.5606 10.4453Z" fill="#FF627B"/>
</svg>
