<svg viewBox="0 0 24 24" fill="none" xmlns="http://www.w3.org/2000/svg">
  <path
    d="M10.6836 2.47314C10.8789 2.47315 11.0726 2.48197 11.2646 2.49463C13.1409 2.57304 15.5899 2.90164 17.7158 3.98096C18.996 4.63099 20.1774 5.56225 21.0361 6.88818C21.897 8.21781 22.4053 9.90032 22.4053 12.0005C22.4052 14.1004 21.897 15.7823 21.0361 17.1118C20.1774 18.4378 18.996 19.369 17.7158 20.019C15.5899 21.0983 13.1409 21.426 11.2646 21.5044C11.0725 21.5171 10.8789 21.5269 10.6836 21.5269C10.6307 21.5269 10.578 21.5229 10.5254 21.522C10.4297 21.523 10.3363 21.5269 10.2451 21.5269V21.5142C5.39761 21.2739 1.59595 17.0731 1.5957 12.0005C1.5957 6.92767 5.39744 2.72515 10.2451 2.48486V2.47314C10.3362 2.47315 10.4297 2.47599 10.5254 2.47705C10.578 2.47611 10.6307 2.47314 10.6836 2.47314ZM10.5234 3.97705C6.44081 4.06709 3.0957 7.58824 3.0957 12.0005C3.09595 16.4125 6.44097 19.9319 10.5234 20.022C10.7578 20.0192 11.0033 20.0118 11.2578 20.0005C15.1498 19.6905 18.2712 16.2623 18.2715 12.0005C18.2715 7.73847 15.15 4.30849 11.2578 3.99854C11.0033 3.98723 10.7578 3.97982 10.5234 3.97705ZM17.2764 5.44678C18.8247 7.16027 19.7715 9.47149 19.7715 12.0005C19.7714 14.5285 18.8247 16.8382 17.2773 18.5513C18.2724 18.0063 19.1422 17.2772 19.7773 16.2964C20.4613 15.24 20.9052 13.8494 20.9053 12.0005C20.9053 10.1513 20.4614 8.76013 19.7773 7.70361C19.1419 6.72228 18.272 5.99181 17.2764 5.44678ZM11.2363 7.75439C11.8977 7.81214 12.5337 8.03794 13.083 8.41064L13.3496 8.60986L13.4072 8.66064C13.6766 8.92877 13.7046 9.36304 13.46 9.66455C13.2153 9.96571 12.7845 10.0281 12.4668 9.81982L12.4053 9.77393L12.2402 9.65186C11.8464 9.38483 11.3803 9.2405 10.9014 9.23975C9.54329 9.24064 8.36133 10.4294 8.36133 12.0005C8.36157 13.5717 9.54399 14.7609 10.9023 14.7612C11.4619 14.7612 11.9834 14.5639 12.4092 14.2231L12.4707 14.1782C12.7899 13.9719 13.2202 14.0372 13.4629 14.3403C13.7216 14.6637 13.669 15.1362 13.3457 15.395L13.085 15.5864C12.4583 16.0107 11.7088 16.2612 10.9023 16.2612C8.62612 16.2609 6.86158 14.3078 6.86133 12.0005C6.86133 9.69299 8.62596 7.74006 10.9023 7.73975H10.9043L11.2363 7.75439Z"
    fill="currentColor" />
</svg>
