<svg width="20" height="20" viewBox="0 0 20 20" fill="none" xmlns="http://www.w3.org/2000/svg">
<path d="M4 0.5H16C17.933 0.5 19.5 2.067 19.5 4V16C19.5 17.933 17.933 19.5 16 19.5H4C2.067 19.5 0.5 17.933 0.5 16V4C0.5 2.067 2.067 0.5 4 0.5Z" fill="white"/>
<path d="M4 0.5H16C17.933 0.5 19.5 2.067 19.5 4V16C19.5 17.933 17.933 19.5 16 19.5H4C2.067 19.5 0.5 17.933 0.5 16V4C0.5 2.067 2.067 0.5 4 0.5Z" stroke="#F0EFF1"/>
<path fill-rule="evenodd" clip-rule="evenodd" d="M14.3295 7.30901C14.5568 7.5205 14.5568 7.8634 14.3295 8.07489L9.36822 12.6902C9.14104 12.9016 8.77276 12.9017 8.54535 12.6906L5.67092 10.0219C5.44335 9.81067 5.44298 9.46777 5.6701 9.25607C5.89721 9.04437 6.26581 9.04403 6.49338 9.2553L8.95617 11.5418L13.5062 7.30901C13.7336 7.09752 14.1022 7.09752 14.3295 7.30901Z" fill="#D4D4DC"/>
</svg>
