<svg width="20" height="20" viewBox="0 0 20 20" fill="none" xmlns="http://www.w3.org/2000/svg">
<path d="M0 4C0 1.79086 1.79086 0 4 0H16C18.2091 0 20 1.79086 20 4V16C20 18.2091 18.2091 20 16 20H4C1.79086 20 0 18.2091 0 16V4Z" fill="#FF627B"/>
<path fill-rule="evenodd" clip-rule="evenodd" d="M14.3295 7.30901C14.5568 7.5205 14.5568 7.8634 14.3295 8.07489L9.36822 12.6902C9.14104 12.9016 8.77276 12.9017 8.54535 12.6906L5.67092 10.0219C5.44335 9.81067 5.44298 9.46777 5.6701 9.25607C5.89721 9.04437 6.26581 9.04403 6.49338 9.2553L8.95617 11.5418L13.5062 7.30901C13.7336 7.09752 14.1022 7.09752 14.3295 7.30901Z" fill="white"/>
</svg>
