<svg viewBox="0 0 12 12" fill="none" xmlns="http://www.w3.org/2000/svg">
  <path
    d="M9.96991 0.969727C10.2628 0.67699 10.7376 0.676884 11.0305 0.969727C11.3233 1.26257 11.3232 1.73738 11.0305 2.03027L7.06073 6L11.0305 9.96973C11.3231 10.2626 11.3233 10.7374 11.0305 11.0303C10.7376 11.3231 10.2628 11.323 9.96991 11.0303L6.00018 7.06055L2.03046 11.0303C1.73758 11.3231 1.26281 11.3231 0.96991 11.0303C0.677017 10.7374 0.677016 10.2626 0.96991 9.96973L4.93964 6L0.96991 2.03027C0.677016 1.73738 0.677017 1.26262 0.96991 0.969727C1.2628 0.676847 1.73757 0.676839 2.03046 0.969727L6.00018 4.93945L9.96991 0.969727Z"
    fill="currentColor" />
</svg>
