<svg viewBox="0 0 19 18" fill="none" xmlns="http://www.w3.org/2000/svg">
  <path
    d="M3.54547 9.79536L14.1099 9.79536L10.3277 13.5776C10.0348 13.8705 10.0348 14.3452 10.3277 14.6381C10.6206 14.931 11.0954 14.931 11.3882 14.6381L15.6558 10.3706L15.7798 10.2329C16.053 9.89935 16.2046 9.48023 16.2047 9.04536L16.2027 9.02681C16.1986 8.59885 16.0496 8.18667 15.7808 7.85786L15.6568 7.72114L11.3882 3.45259L11.3316 3.40083C11.037 3.1605 10.6023 3.17801 10.3277 3.45259C10.0531 3.7272 10.0356 4.16191 10.2759 4.4565L10.3277 4.51314L14.1099 8.29536L3.54547 8.29536C3.13126 8.29536 2.79547 8.63115 2.79547 9.04536C2.79547 9.45958 3.13126 9.79536 3.54547 9.79536Z"
    fill="currentColor" />
</svg>
