<svg width="24" height="24" viewBox="0 0 24 24" fill="none" xmlns="http://www.w3.org/2000/svg">
<path d="M18.5 14.7608C18.6934 14.7598 18.8648 14.8278 19 14.9649C19.1337 15.1004 19.2012 15.2699 19.2012 15.4609V17.3838C19.2012 17.8941 19.0285 18.3309 18.6807 18.6787C18.3329 19.0264 17.8963 19.1994 17.3857 19.2002H6.61719C6.10687 19.2002 5.67011 19.0275 5.32227 18.6797C4.97456 18.332 4.80162 17.8954 4.80078 17.3848V15.4609C4.8008 15.2691 4.86795 15.0989 5.00293 14.9639C5.13786 14.829 5.30806 14.7617 5.5 14.7608C5.69343 14.7598 5.86477 14.8278 6 14.9649C6.13368 15.1004 6.20115 15.2699 6.20117 15.4609V17.3838C6.20117 17.4756 6.23709 17.5686 6.33496 17.667C6.43244 17.7649 6.52429 17.8002 6.61523 17.7998H17.3857C17.4766 17.7998 17.5694 17.7641 17.668 17.666C17.7657 17.5687 17.8012 17.4766 17.8008 17.3848V15.4609C17.8008 15.2691 17.8679 15.0989 18.0029 14.9639C18.1379 14.829 18.3081 14.7617 18.5 14.7608ZM12.002 4.79981C12.1935 4.80072 12.364 4.8669 12.499 5.00099C12.6349 5.13589 12.7012 5.30735 12.7012 5.50001V13.166L14.3301 11.5371C14.4622 11.405 14.6264 11.3327 14.8125 11.3262C14.9612 11.3211 15.0959 11.3656 15.2139 11.4483L15.3271 11.544L15.3281 11.5459C15.4621 11.6841 15.5449 11.8488 15.5479 12.0361C15.5508 12.2284 15.4661 12.3961 15.3271 12.5342L15.3262 12.5332L12.707 15.1533C12.6056 15.2548 12.4939 15.3333 12.3711 15.3809L12.3721 15.3818C12.2558 15.4271 12.1311 15.4483 12.001 15.4483C11.8714 15.4483 11.7473 15.4269 11.6309 15.3818C11.5076 15.3342 11.3954 15.2546 11.2939 15.1524L8.6748 12.5332C8.54314 12.4015 8.46948 12.239 8.46387 12.0537C8.4581 11.8599 8.53571 11.6891 8.67188 11.5469L8.6748 11.544C8.81332 11.4054 8.9793 11.3194 9.16992 11.3164C9.36334 11.3134 9.53177 11.3975 9.6709 11.5371L11.3008 13.166V5.50001C11.3008 5.30813 11.3674 5.13744 11.502 5.00196C11.6373 4.86568 11.8089 4.79891 12.002 4.79981Z" fill="currentColor"/>
</svg>
