<svg width="24" height="24" viewBox="0 0 24 24" fill="none" xmlns="http://www.w3.org/2000/svg">
<path d="M6.13672 13.6523C5.22266 13.6523 4.48047 12.918 4.48047 12.0039C4.48047 11.0898 5.22266 10.3477 6.13672 10.3477C7.05078 10.3477 7.78516 11.0898 7.78516 12.0039C7.78516 12.918 7.05078 13.6523 6.13672 13.6523ZM11.9961 13.6523C11.0898 13.6523 10.3477 12.918 10.3477 12.0039C10.3477 11.0898 11.0898 10.3477 11.9961 10.3477C12.9102 10.3477 13.6523 11.0898 13.6523 12.0039C13.6523 12.918 12.9102 13.6523 11.9961 13.6523ZM17.8633 13.6523C16.9492 13.6523 16.2148 12.918 16.2148 12.0039C16.2148 11.0898 16.9492 10.3477 17.8633 10.3477C18.7773 10.3477 19.5195 11.0898 19.5195 12.0039C19.5195 12.918 18.7773 13.6523 17.8633 13.6523Z" fill="currentColor"/>
</svg>
