<svg viewBox="0 0 20 21" fill="none" xmlns="http://www.w3.org/2000/svg">
  <rect x="0.5" y="1" width="19" height="19" rx="4.5" fill="white" />
  <rect x="0.5" y="1" width="19" height="19" rx="4.5" stroke="#F2F2F2" />
  <path fill-rule="evenodd" clip-rule="evenodd"
    d="M15.76 10.6365C15.76 10.211 15.7218 9.80191 15.6509 9.40918H10V11.7301H13.2291C13.09 12.4801 12.6673 13.1155 12.0318 13.541V15.0465H13.9709C15.1055 14.0019 15.76 12.4637 15.76 10.6365Z"
    fill="#4285F4" />
  <path fill-rule="evenodd" clip-rule="evenodd"
    d="M10 16.4999C11.62 16.4999 12.9782 15.9626 13.9709 15.0463L12.0318 13.5408C11.4945 13.9008 10.8073 14.1135 10 14.1135C8.43727 14.1135 7.11455 13.0581 6.64273 11.6399H4.63818V13.1944C5.62546 15.1553 7.65455 16.4999 10 16.4999Z"
    fill="#34A853" />
  <path fill-rule="evenodd" clip-rule="evenodd"
    d="M6.64273 11.64C6.52273 11.28 6.45455 10.8954 6.45455 10.5C6.45455 10.1045 6.52273 9.71997 6.64273 9.35997V7.80542H4.63818C4.23182 8.61542 4 9.53178 4 10.5C4 11.4681 4.23182 12.3845 4.63818 13.1945L6.64273 11.64Z"
    fill="#FBBC05" />
  <path fill-rule="evenodd" clip-rule="evenodd"
    d="M10 6.88636C10.8809 6.88636 11.6718 7.18909 12.2936 7.78364L14.0145 6.06273C12.9755 5.09455 11.6173 4.5 10 4.5C7.65455 4.5 5.62546 5.84455 4.63818 7.80545L6.64273 9.36C7.11455 7.94182 8.43727 6.88636 10 6.88636Z"
    fill="#FF5050" />
</svg>
