<svg viewBox="0 0 24 24" fill="none" xmlns="http://www.w3.org/2000/svg" stroke="#250F09">
<path d="M7.8584 4.75C8.39553 4.74983 8.92723 4.85774 9.4248 5.06836C9.9222 5.27892 10.3754 5.58858 10.7578 5.97949L11.4922 6.72949L12.0273 7.27734L12.5635 6.73047L13.29 5.9873L13.291 5.98828C14.0668 5.22071 15.1033 4.79766 16.1758 4.80664C17.2481 4.81572 18.2776 5.25558 19.041 6.03613C19.805 6.8173 20.2411 7.87764 20.25 8.98926C20.2589 10.1009 19.8395 11.1688 19.0879 11.9629L12.0273 19.1816L4.95898 11.9551C4.38315 11.3664 3.98888 10.6142 3.8291 9.79297C3.66931 8.97169 3.75143 8.12029 4.06445 7.34766C4.37742 6.57516 4.90662 5.91745 5.58203 5.45605C6.17275 5.05253 6.85314 4.81496 7.55566 4.76172L7.8584 4.75Z" fill="currentColor" stroke-width="1.5"/>
</svg>
