<svg viewBox="0 0 18 18" fill="none" xmlns="http://www.w3.org/2000/svg">
  <path
    d="M8.3 12.5H9.7V8.3H8.3V12.5ZM9 6.9C9.19833 6.9 9.3647 6.8328 9.4991 6.6984C9.6335 6.564 9.70047 6.39787 9.7 6.2C9.69953 6.00213 9.63233 5.836 9.4984 5.7016C9.36447 5.5672 9.19833 5.5 9 5.5C8.80167 5.5 8.63553 5.5672 8.5016 5.7016C8.36767 5.836 8.30047 6.00213 8.3 6.2C8.29953 6.39787 8.36673 6.56423 8.5016 6.6991C8.63647 6.83397 8.8026 6.90093 9 6.9ZM9 16C8.03167 16 7.12167 15.8161 6.27 15.4484C5.41833 15.0807 4.6775 14.582 4.0475 13.9525C3.4175 13.323 2.91887 12.5821 2.5516 11.73C2.18433 10.8779 2.00047 9.96786 2 9C1.99953 8.03213 2.1834 7.12213 2.5516 6.27C2.9198 5.41787 3.41843 4.67703 4.0475 4.0475C4.67657 3.41797 5.4174 2.91933 6.27 2.5516C7.1226 2.18387 8.0326 2 9 2C9.9674 2 10.8774 2.18387 11.73 2.5516C12.5826 2.91933 13.3234 3.41797 13.9525 4.0475C14.5816 4.67703 15.0804 5.41787 15.4491 6.27C15.8178 7.12213 16.0014 8.03213 16 9C15.9986 9.96786 15.8147 10.8779 15.4484 11.73C15.0821 12.5821 14.5834 13.323 13.9525 13.9525C13.3216 14.582 12.5807 15.0809 11.73 15.4491C10.8793 15.8173 9.96926 16.0009 9 16ZM9 14.6C10.5633 14.6 11.8875 14.0575 12.9725 12.9725C14.0575 11.8875 14.6 10.5633 14.6 9C14.6 7.43667 14.0575 6.1125 12.9725 5.0275C11.8875 3.9425 10.5633 3.4 9 3.4C7.43667 3.4 6.1125 3.9425 5.0275 5.0275C3.9425 6.1125 3.4 7.43667 3.4 9C3.4 10.5633 3.9425 11.8875 5.0275 12.9725C6.1125 14.0575 7.43667 14.6 9 14.6Z"
    fill="currentColor" />
</svg>
