<svg width="83" height="24" viewBox="0 0 83 24" fill="none" xmlns="http://www.w3.org/2000/svg">
<path d="M10.096 9.55486C11.6188 9.73031 12.3742 10.7873 12.7534 11.7917C13.9565 10.2126 15.6877 9.36929 17.7239 9.87799C18.4231 10.0987 18.9921 10.4869 19.4117 11.0067C19.8699 11.5746 20.097 12.2329 20.2081 12.856C20.4253 14.0735 20.2514 15.4957 20.0359 16.7389C19.7955 18.1259 19.5361 19.1605 19.3892 20.1788C19.2464 21.1688 20.5411 21.3329 21.4221 20.7642L23.0442 22.8935C23.0442 22.8935 21.5547 23.7242 20.9958 23.8621C19.971 24.1148 18.5609 24.1012 17.2092 23.1183C16.5054 22.6062 16.3645 21.8379 16.3257 21.4024C16.1751 19.7079 16.7803 17.9643 17.0674 16.3084C17.28 15.0819 17.3752 14.0433 17.2425 13.2991C17.0167 12.0334 15.9539 12.4491 15.3052 13.2543C14.641 14.0787 14.0484 15.3529 13.5558 16.7926C13.2505 17.6848 12.7984 19.4278 12.7984 19.4278L12.136 22.754L12.1351 22.7558V22.7575H9.1792L9.85139 18.8737C9.85139 18.8737 10.0568 17.4589 10.1224 16.7255C10.2459 15.3446 10.2463 14.0695 10.05 13.1603C9.72203 11.6423 8.35926 12.3232 7.4914 13.3008C6.73798 14.1495 6.11972 15.4175 5.63824 16.8374C5.16449 18.2345 4.8597 19.6684 4.6735 20.7642C4.57247 21.3587 4.48378 21.9565 4.42693 22.5562V22.5606H1.429L2.81733 14.4054L0.666695 10.6173L4.65059 9.39638L5.63824 11.1992C6.8274 9.55486 8.72054 9.39638 10.096 9.55486ZM25.5328 11.1992C26.8686 10.2326 28.5944 9.70788 30.3389 10.125C32.0836 10.5425 33.2806 11.7665 33.8906 13.1988C34.5007 14.6315 34.5763 16.3601 34.0609 18.0637C33.5453 19.7671 32.5048 21.2284 31.1686 22.1954C29.8327 23.1622 28.1062 23.6878 26.3615 23.2704C24.617 22.8529 23.4207 21.6281 22.8108 20.1958C22.2007 18.7631 22.1252 17.0352 22.6405 15.3318C23.156 13.6283 24.1966 12.1662 25.5328 11.1992ZM49.6904 0.01938C50.467 -0.0775888 51.1383 0.19879 51.6023 0.636997C52.0129 1.02494 52.2428 1.51408 52.3821 1.93847C52.5277 2.38228 52.6127 2.87689 52.6551 3.38226C52.8215 5.36748 52.3789 8.13493 51.3606 10.4347C50.5312 12.3077 49.0228 14.8245 47.2727 17.0719C47.4341 18.1798 47.6329 19.5537 48.3617 20.4938C48.6958 20.3434 48.9729 20.0826 49.2169 19.8315C49.3812 19.6622 49.5006 19.5128 49.5006 19.5128C49.7907 19.7028 51.9085 21.1589 51.9085 21.1589C51.4218 21.7276 50.8875 22.2627 50.2305 22.6716C49.735 22.98 48.9565 23.3469 48.0329 23.2722C46.9966 23.1883 46.2059 22.5932 45.6808 21.7595C45.3316 21.2049 45.0492 20.5518 44.8237 19.8368C44.1364 20.5037 43.425 21.1017 42.7044 21.5742C41.5298 22.3443 40.0297 22.983 38.4785 22.6331C37.0297 22.3062 36.1058 21.3863 35.6264 20.305C35.1677 19.27 35.0968 18.0714 35.2369 16.9466C35.5109 14.7489 36.6782 12.2236 38.5186 10.9047C39.8098 9.97973 41.072 9.51006 42.2905 9.46445C43.0552 9.43589 43.7337 9.57736 44.3188 9.80817C44.5354 8.18446 44.8832 6.59409 45.3687 5.1832C45.9611 3.46191 46.8136 1.83606 48.0388 0.803486C48.459 0.449457 49.0131 0.104108 49.6904 0.01938ZM76.5123 9.58529C79.9287 8.89891 82.0765 12.8512 80.4584 15.3112C79.7373 16.4073 78.4889 17.147 77.3831 17.6421C76.1704 18.185 74.8734 18.5625 73.5614 18.846C73.7603 19.3674 74.0596 19.7051 74.3862 19.9246C74.8008 20.2031 75.3657 20.3654 76.0564 20.3614C77.4724 20.3529 79.1768 19.6348 80.3038 18.3232L82.6667 20.0221C81.0116 21.9484 78.4664 23.0969 76.0759 23.1111C74.864 23.1183 73.6359 22.8317 72.6074 22.1408C71.5639 21.4397 70.8328 20.3927 70.5086 19.068C70.1739 17.6995 70.4209 16.263 70.9235 14.9988C71.43 13.7253 72.2354 12.5218 73.167 11.576C74.0711 10.6583 75.2353 9.8419 76.5123 9.58529ZM56.6941 12.173C56.2121 13.515 55.7965 14.8805 55.4994 16.2672C55.2658 17.3576 55.1296 18.3958 55.1736 19.1888C55.2217 20.0534 55.801 20.1991 56.0571 20.0935C56.3132 19.9878 56.8672 19.6175 56.8672 19.6175C57.1702 19.8776 58.8408 21.5411 58.8408 21.5411C58.4737 21.8896 58.0598 22.1933 57.5952 22.4273C56.7389 22.8584 55.3835 23.2016 53.9182 22.4908C53.2048 22.1444 52.7809 21.577 52.5387 21.0264C52.3012 20.4866 52.2031 19.8912 52.1717 19.3275C52.1092 18.2005 52.3006 16.905 52.5504 15.7391C52.8783 14.2086 53.3365 12.7013 53.8732 11.2215C54.4365 11.3925 56.6941 12.173 56.6941 12.173ZM68.8157 9.71375C68.8157 9.71375 69.4831 10.8383 69.5108 10.91C69.9165 11.9606 69.9288 12.561 69.5108 13.5937C69.3709 13.9395 69.3216 14.1099 69.0997 14.6336C68.6573 15.678 68.0678 17.002 67.4187 18.248C66.7864 19.4621 66.0363 20.7226 65.2505 21.5563C64.8779 21.9516 64.3339 22.4307 63.6243 22.6313C63.2318 22.7423 62.7748 22.7708 62.3054 22.6367C61.8442 22.5049 61.4883 22.2496 61.2252 21.9708C59.6042 20.2523 59.5869 17.3831 59.5511 15.2423C59.527 13.7958 59.5982 12.3518 59.7184 10.91L62.6909 11.0359C62.6243 12.424 62.5337 13.8098 62.5569 15.2002C62.5809 16.6376 62.6215 18.1823 63.1547 19.554C63.6198 18.9944 64.1577 18.1155 64.7045 17.0656C65.912 14.7475 66.8237 13.7887 66.9289 12.8739C67.0342 11.9591 66.4595 11.3974 66.3955 11.2215C66.728 11.0632 68.8157 9.71375 68.8157 9.71375ZM29.5375 12.7754C28.9317 12.6306 28.1738 12.7703 27.3948 13.334C26.6159 13.8976 25.9099 14.8328 25.5485 16.0273C25.1871 17.2217 25.2703 18.3449 25.6258 19.1798C25.9814 20.015 26.5572 20.4749 27.1629 20.6201C27.7687 20.765 28.5275 20.6244 29.3066 20.0606C30.0853 19.497 30.7915 18.5625 31.1529 17.3682C31.5144 16.1736 31.4312 15.0498 31.0756 14.2147C30.72 13.3795 30.1433 12.9205 29.5375 12.7754ZM40.3718 13.069L40.3728 13.0699C39.3732 13.7862 38.4408 15.5116 38.2231 17.2581C37.9974 19.0693 39.4867 20.8997 41.6019 19.5128C42.884 18.6721 44.0112 16.8336 44.3188 15.3318C44.7854 13.0538 43.0494 11.1509 40.3718 13.069ZM77.1931 12.266C76.5484 12.1755 75.6821 12.4561 74.9775 13.1714C74.2956 13.8637 73.7394 14.9988 73.7394 15.9602C74.467 15.77 75.3042 15.5119 76.0622 15.1725C76.9987 14.7532 77.6127 14.3043 77.8831 13.8934C78.4067 13.0977 77.9192 12.4654 77.1931 12.266ZM49.6239 3.29186C49.1301 3.89716 48.6485 4.80909 48.2355 6.00937C47.5525 7.99424 47.2332 10.0821 47.1073 12.156C47.7145 11.1527 48.221 10.2012 48.575 9.4018C49.401 7.53606 49.9027 5.3096 49.6239 3.29186ZM56.5992 6.65474C57.7846 6.6549 58.603 7.56088 58.603 8.598C58.6026 9.60999 57.7054 10.431 56.5992 10.4312C55.4929 10.4309 54.5958 9.60995 54.5953 8.598C54.5953 7.56089 55.4138 6.65497 56.5992 6.65474Z" fill="#FF627B"/>
</svg>
