<svg width="25" height="25" viewBox="0 0 25 25" fill="none" xmlns="http://www.w3.org/2000/svg">
<path d="M19.5634 4.58633H20.9066V6.40388H21.9546V15.6135H20.2314V17.2876H18.5429V18.6475H13.542V20.2081H12.126V21.4975H10.1806V22.175H8.34509V18.7025H5.81654V17.2876H4.56899V15.5621H3.04541V6.36803H4.59409V4.6413H5.97786V2.82495H19.5634V4.58633ZM6.31723 6.47677H4.88088V15.4522H5.89302V16.867H10.1818V18.7025H10.1806V19.662H11.7077V18.3727H12.5968V16.812H18.2143V15.4522H20.1191V6.4218H18.4318V4.66042H6.31723V6.47677ZM11.6336 8.45444H13.2576V6.90098H15.6236V8.45444H17.1424V10.2899H17.0707V11.8087H15.6941V13.2917H14.2817V14.7041H13.0807V16.1166H11.5273V14.7041H10.0443V13.2917H8.91509V11.8087H7.39628V10.2899H7.29113V8.45444H8.73823V6.79463H11.6336V8.45444Z" fill="currentColor"/>
</svg>
