<svg width="24" height="25" viewBox="0 0 24 25" fill="none" xmlns="http://www.w3.org/2000/svg">
<path fill-rule="evenodd" clip-rule="evenodd" d="M12 12.5C13.1935 12.5 14.3381 12.0259 15.182 11.182C16.0259 10.3381 16.5 9.19347 16.5 8C16.5 6.80653 16.0259 5.66193 15.182 4.81802C14.3381 3.97411 13.1935 3.5 12 3.5C10.8065 3.5 9.66193 3.97411 8.81802 4.81802C7.97411 5.66193 7.5 6.80653 7.5 8C7.5 9.19347 7.97411 10.3381 8.81802 11.182C9.66193 12.0259 10.8065 12.5 12 12.5ZM11.9999 14.25C9.57912 14.25 7.43627 14.9622 5.78506 15.9952C4.1494 17.0185 2.93766 18.3958 2.46529 19.7771C2.28114 20.3156 2.4292 20.8397 2.75244 21.2038C3.06256 21.5531 3.52211 21.75 3.99993 21.75H19.9999C20.4778 21.75 20.9373 21.5531 21.2474 21.2038C21.5707 20.8397 21.7187 20.3156 21.5346 19.7771C21.0622 18.3958 19.8505 17.0185 18.2148 15.9952C16.5636 14.9622 14.4207 14.25 11.9999 14.25Z" fill="currentColor"/>
</svg>
