<svg width="25" height="25" viewBox="0 0 25 25" fill="none" xmlns="http://www.w3.org/2000/svg">
<path d="M11.3668 9.44904H9.65784V10.5965H8.37366V12.0223H6.94788V13.3182H5.89905V15.119H9.65686V13.7596H12.3776V15.119H13.6715V13.824H15.1617V15.119H18.6481V13.1883H17.5465V11.8279H16.1862V10.6619H14.9938V8.67072H13.6598V4.63458H8.51135V2.92365H16.1823V4.63458H15.3688V8.67072H16.7037V10.6619H17.8951V11.8279H19.2555V13.1883H20.3571V14.077H20.8629V19.3553H19.8912V20.8455H18.2076V22.076H7.19495V20.8455H5.83362V19.4734H4.13733V13.3182H5.23792V11.7635H6.6637V10.4676H7.89417V8.91193H9.65784V4.66876H11.3668V9.44904ZM13.6715 13.0067H12.1168V11.2977H13.6715V13.0067Z" fill="currentColor"/>
</svg>
