<svg width="25" height="25" viewBox="0 0 25 25" fill="none" xmlns="http://www.w3.org/2000/svg">
<path fill-rule="evenodd" clip-rule="evenodd" d="M8.78769 4.28769C9.77226 3.30312 11.1076 2.75 12.5 2.75C13.8924 2.75 15.2277 3.30312 16.2123 4.28769C17.1969 5.27226 17.75 6.60761 17.75 8C17.75 9.39239 17.1969 10.7277 16.2123 11.7123C15.2277 12.6969 13.8924 13.25 12.5 13.25C11.1076 13.25 9.77226 12.6969 8.78769 11.7123C7.80312 10.7277 7.25 9.39239 7.25 8C7.25 6.60761 7.80312 5.27226 8.78769 4.28769ZM12.5 4.25C11.5054 4.25 10.5516 4.64509 9.84835 5.34835C9.14509 6.05161 8.75 7.00544 8.75 8C8.75 8.99456 9.14509 9.94839 9.84835 10.6516C10.5516 11.3549 11.5054 11.75 12.5 11.75C13.4946 11.75 14.4484 11.3549 15.1517 10.6516C15.8549 9.94839 16.25 8.99456 16.25 8C16.25 7.00544 15.8549 6.05161 15.1517 5.34835C14.4484 4.64509 13.4946 4.25 12.5 4.25ZM6.49698 17.6648C4.98273 18.7886 4.25 20.0931 4.25 21C4.25 21.4142 3.91421 21.75 3.5 21.75C3.08579 21.75 2.75 21.4142 2.75 21C2.75 19.4069 3.91727 17.7114 5.60302 16.4602C7.32684 15.1808 9.73235 14.25 12.5 14.25C15.2676 14.25 17.6732 15.1808 19.397 16.4602C21.0827 17.7114 22.25 19.4069 22.25 21C22.25 21.4142 21.9142 21.75 21.5 21.75C21.0858 21.75 20.75 21.4142 20.75 21C20.75 20.0931 20.0173 18.7886 18.503 17.6648C17.0268 16.5692 14.9324 15.75 12.5 15.75C10.0676 15.75 7.97316 16.5692 6.49698 17.6648Z" fill="currentColor"/>
</svg>
