<svg viewBox="0 0 18 19" fill="none" xmlns="http://www.w3.org/2000/svg">
  <path
    d="M10.5073 2.80424C10.9577 2.50588 11.7208 2.29287 12.2968 2.86879L15.6296 6.20239C16.2077 6.77902 15.994 7.54214 15.6949 7.99183C15.533 8.23566 15.3222 8.44325 15.0759 8.60146C14.8364 8.75422 14.5337 8.86969 14.2074 8.85248C14.0495 8.8413 13.8921 8.82431 13.7355 8.80156L13.6867 8.79439C13.5184 8.77026 13.3493 8.7528 13.1796 8.74203C12.8182 8.7241 12.679 8.78506 12.6346 8.8281L10.8487 10.6147C10.7913 10.672 10.7196 10.7997 10.6651 11.045C10.6127 11.2817 10.5898 11.5729 10.584 11.8956C10.579 12.2054 10.5898 12.5224 10.6013 12.828L10.602 12.8617C10.6127 13.1651 10.6235 13.4749 10.6084 13.718C10.5618 14.4575 9.98589 15.0018 9.4193 15.2536C8.8527 15.5046 8.0444 15.567 7.48283 15.0047L5.8691 13.391L2.92495 16.3351C2.8757 16.388 2.81632 16.4304 2.75033 16.4598C2.68435 16.4892 2.61312 16.505 2.5409 16.5063C2.46867 16.5075 2.39693 16.4943 2.32995 16.4672C2.26297 16.4401 2.20213 16.3999 2.15105 16.3488C2.09997 16.2977 2.0597 16.2369 2.03265 16.1699C2.0056 16.1029 1.99231 16.0312 1.99358 15.959C1.99486 15.8867 2.01067 15.8155 2.04007 15.7495C2.06947 15.6835 2.11186 15.6241 2.1647 15.5749L5.10814 12.6307L3.49441 11.017C2.93284 10.4547 2.99452 9.64715 3.24626 9.08055C3.49728 8.51396 4.04236 7.93804 4.78109 7.89142C5.02494 7.87636 5.33478 7.88712 5.63816 7.89787L5.67187 7.89859C5.9774 7.90935 6.29441 7.92082 6.60424 7.9158C6.92699 7.91007 7.21818 7.88712 7.45486 7.83476C7.70014 7.78025 7.82781 7.70781 7.88518 7.65044L9.67104 5.86458C9.71479 5.82083 9.77575 5.68097 9.7571 5.3195C9.74634 5.14985 9.72887 4.9807 9.70475 4.81243L9.69829 4.76366C9.67554 4.60703 9.65855 4.44962 9.64737 4.29174C9.62944 3.96541 9.74491 3.66274 9.89696 3.42319C10.0519 3.17934 10.2663 2.96418 10.5073 2.80424Z"
    fill="currentColor" />
</svg>
