<svg width="18" height="18" viewBox="0 0 18 18" fill="none" xmlns="http://www.w3.org/2000/svg">
<path d="M14.25 10.125C14.25 11.2375 13.9201 12.3251 13.302 13.2501C12.6839 14.1751 11.8054 14.8961 10.7776 15.3218C9.74976 15.7476 8.61876 15.859 7.52762 15.6419C6.43648 15.4249 5.4342 14.8891 4.64753 14.1025C3.86086 13.3158 3.32513 12.3135 3.10809 11.2224C2.89104 10.1312 3.00244 9.00024 3.42818 7.97241C3.85392 6.94457 4.57489 6.06607 5.49992 5.44798C6.42495 4.8299 7.51248 4.5 8.625 4.5H15M15 4.5L12.75 2.25M15 4.5L12.75 6.75" stroke="currentColor" stroke-width="1.5" stroke-linecap="round" stroke-linejoin="round"/>
</svg>
