<svg viewBox="0 0 24 24" fill="none" xmlns="http://www.w3.org/2000/svg">
  <path fill-rule="evenodd" clip-rule="evenodd"
    d="M10.8571 4.75C10.0551 4.75 9.26099 4.90797 8.52004 5.21488C7.77909 5.52179 7.10584 5.97164 6.53874 6.53874C5.97164 7.10584 5.52179 7.77909 5.21488 8.52004C4.90797 9.26099 4.75 10.0551 4.75 10.8571C4.75 11.6591 4.90797 12.4533 5.21488 13.1942C5.52179 13.9352 5.97164 14.6084 6.53874 15.1755C7.10584 15.7426 7.77909 16.1925 8.52004 16.4994C9.26099 16.8063 10.0551 16.9643 10.8571 16.9643C12.4769 16.9643 14.0302 16.3209 15.1755 15.1755C16.3209 14.0302 16.9643 12.4769 16.9643 10.8571C16.9643 9.23743 16.3209 7.68405 15.1755 6.53874C14.0302 5.39343 12.4769 4.75 10.8571 4.75ZM7.94602 3.82906C8.86896 3.44676 9.85816 3.25 10.8571 3.25C12.8747 3.25 14.8096 4.05146 16.2362 5.47808C17.6628 6.9047 18.4643 8.8396 18.4643 10.8571C18.4643 12.6231 17.8502 14.3258 16.7403 15.6797L20.5303 19.4697L19.4697 20.5303L15.6797 16.7403C14.3258 17.8502 12.6231 18.4643 10.8571 18.4643C9.85816 18.4643 8.86896 18.2675 7.94602 17.8852C7.02307 17.5029 6.18447 16.9426 5.47808 16.2362C4.77169 15.5298 4.21135 14.6912 3.82906 13.7683C3.44676 12.8453 3.25 11.8561 3.25 10.8571C3.25 9.85816 3.44676 8.86896 3.82906 7.94602C4.21135 7.02307 4.77169 6.18447 5.47808 5.47808C6.18447 4.77169 7.02307 4.21135 7.94602 3.82906Z"
    fill="#250F09" />
</svg>
