<svg viewBox="0 0 20 20" fill="none" xmlns="http://www.w3.org/2000/svg">
<rect width="20" height="20" rx="5" fill="#FEE500"/>
<path d="M10 4C13.8667 4 17.0007 6.44267 17.0007 9.45667C17.0007 12.47 13.8667 14.9127 10.0007 14.9127C9.61572 14.9129 9.23115 14.8884 8.84934 14.8393L5.91067 16.7613C5.57667 16.938 5.45867 16.9187 5.596 16.486L6.19067 14.034C4.27067 13.0607 3.00067 11.374 3.00067 9.45667C3.00067 6.44333 6.134 4 10.0007 4H10ZM13.9387 9.37333L14.9187 8.424C14.9752 8.36527 15.0068 8.28689 15.0067 8.20536C15.0066 8.12384 14.9748 8.04553 14.9181 7.98694C14.8615 7.92835 14.7842 7.89405 14.7028 7.89126C14.6213 7.88847 14.5419 7.91742 14.4813 7.972L13.196 9.216V8.188C13.196 8.10454 13.1629 8.02451 13.1038 7.9655C13.0448 7.90649 12.9648 7.87333 12.8813 7.87333C12.7979 7.87333 12.7178 7.90649 12.6588 7.9655C12.5998 8.02451 12.5667 8.10454 12.5667 8.188V9.89267C12.5549 9.9413 12.5549 9.99203 12.5667 10.0407V11C12.5667 11.0835 12.5998 11.1635 12.6588 11.2225C12.7178 11.2815 12.7979 11.3147 12.8813 11.3147C12.9648 11.3147 13.0448 11.2815 13.1038 11.2225C13.1629 11.1635 13.196 11.0835 13.196 11V10.0913L13.4807 9.816L14.4327 11.1713C14.4564 11.2052 14.4866 11.234 14.5216 11.2562C14.5565 11.2783 14.5954 11.2934 14.6361 11.3005C14.6769 11.3076 14.7186 11.3067 14.759 11.2977C14.7993 11.2886 14.8375 11.2718 14.8713 11.248C14.9052 11.2242 14.934 11.194 14.9562 11.1591C14.9783 11.1242 14.9934 11.0853 15.0005 11.0445C15.0076 11.0038 15.0067 10.9621 14.9977 10.9217C14.9886 10.8814 14.9718 10.8432 14.948 10.8093L13.9387 9.37267V9.37333ZM11.9667 10.656H10.9933V8.198C10.9896 8.11714 10.9549 8.04082 10.8963 7.98492C10.8378 7.92901 10.76 7.89781 10.679 7.89781C10.5981 7.89781 10.5202 7.92901 10.4617 7.98492C10.4031 8.04082 10.3684 8.11714 10.3647 8.198V10.9707C10.3647 11.144 10.5047 11.2853 10.6787 11.2853H11.9667C12.0501 11.2853 12.1302 11.2522 12.1892 11.1932C12.2482 11.1342 12.2813 11.0541 12.2813 10.9707C12.2813 10.8872 12.2482 10.8072 12.1892 10.7482C12.1302 10.6892 12.0501 10.656 11.9667 10.656ZM8.06201 9.92867L8.526 8.79L8.95134 9.928L8.06201 9.92867ZM9.744 10.2533L9.74534 10.2427C9.74518 10.1634 9.71492 10.0871 9.66067 10.0293L8.96334 8.16267C8.93411 8.07371 8.87842 7.9958 8.80373 7.93933C8.72904 7.88286 8.63889 7.85054 8.54534 7.84667C8.4511 7.84625 8.35897 7.87454 8.2812 7.92778C8.20343 7.98101 8.14372 8.05666 8.11 8.14467L7.002 10.8613C6.97044 10.9386 6.97087 11.0252 7.00319 11.1022C7.03551 11.1791 7.09707 11.2401 7.17434 11.2717C7.2516 11.3032 7.33824 11.3028 7.4152 11.2705C7.49215 11.2382 7.55311 11.1766 7.58467 11.0993L7.806 10.5573H9.186L9.38467 11.0907C9.39822 11.1305 9.41964 11.1673 9.44765 11.1987C9.47566 11.2301 9.50969 11.2556 9.54774 11.2737C9.58578 11.2917 9.62706 11.302 9.66913 11.3038C9.71119 11.3056 9.75319 11.2989 9.79264 11.2842C9.83209 11.2695 9.86818 11.247 9.89878 11.218C9.92937 11.1891 9.95385 11.1543 9.97076 11.1158C9.98768 11.0772 9.99668 11.0357 9.99723 10.9935C9.99779 10.9514 9.98989 10.9097 9.974 10.8707L9.744 10.2533ZM7.52934 8.20133C7.52934 8.11799 7.49628 8.03806 7.43741 7.97907C7.37854 7.92007 7.29868 7.88684 7.21534 7.88667H5.052C4.96855 7.88667 4.88851 7.91982 4.8295 7.97883C4.77049 8.03784 4.73734 8.11788 4.73734 8.20133C4.73734 8.28479 4.77049 8.36482 4.8295 8.42384C4.88851 8.48285 4.96855 8.516 5.052 8.516H5.82534V11.0067C5.82534 11.0901 5.85849 11.1702 5.9175 11.2292C5.97651 11.2882 6.05655 11.3213 6.14 11.3213C6.22346 11.3213 6.3035 11.2882 6.36251 11.2292C6.42152 11.1702 6.45467 11.0901 6.45467 11.0067V8.516H7.21467C7.29813 8.516 7.37816 8.48285 7.43717 8.42384C7.49619 8.36482 7.52934 8.28479 7.52934 8.20133Z" fill="black"/>
</svg>
