<svg viewBox="0 0 20 21" fill="none" xmlns="http://www.w3.org/2000/svg">
  <rect y="0.5" width="20" height="20" rx="5" fill="black" />
  <path
    d="M13.4248 16.02C12.7714 16.6533 12.0581 16.5533 11.3714 16.2533C10.6448 15.9467 9.97811 15.9333 9.21144 16.2533C8.25144 16.6667 7.74477 16.5467 7.17144 16.02C3.91811 12.6667 4.39811 7.56 8.09144 7.37333C8.99144 7.42 9.61811 7.86667 10.1448 7.90667C10.9314 7.74667 11.6848 7.28667 12.5248 7.34667C13.5314 7.42667 14.2914 7.82667 14.7914 8.54667C12.7114 9.79333 13.2048 12.5333 15.1114 13.3C14.7314 14.3 14.2381 15.2933 13.4181 16.0267L13.4248 16.02ZM10.0781 7.33333C9.97811 5.84667 11.1848 4.62 12.5714 4.5C12.7648 6.22 11.0114 7.5 10.0781 7.33333Z"
    fill="white" />
</svg>
