<svg viewBox="0 0 20 21" fill="none" xmlns="http://www.w3.org/2000/svg">
  <rect y="0.5" width="20" height="20" rx="5" fill="#FEE500" />
  <path
    d="M10 4.5C13.8667 4.5 17.0007 6.94267 17.0007 9.95667C17.0007 12.97 13.8667 15.4127 10.0007 15.4127C9.61572 15.4129 9.23115 15.3884 8.84933 15.3393L5.91067 17.2613C5.57667 17.438 5.45867 17.4187 5.596 16.986L6.19067 14.534C4.27067 13.5607 3.00067 11.874 3.00067 9.95667C3.00067 6.94333 6.134 4.5 10.0007 4.5H10ZM13.9387 9.87333L14.9187 8.924C14.9752 8.86527 15.0068 8.78689 15.0067 8.70536C15.0066 8.62384 14.9748 8.54553 14.9181 8.48694C14.8615 8.42835 14.7842 8.39405 14.7028 8.39126C14.6213 8.38847 14.5419 8.41742 14.4813 8.472L13.196 9.716V8.688C13.196 8.60454 13.1628 8.52451 13.1038 8.4655C13.0448 8.40649 12.9648 8.37333 12.8813 8.37333C12.7979 8.37333 12.7178 8.40649 12.6588 8.4655C12.5998 8.52451 12.5667 8.60454 12.5667 8.688V10.3927C12.5549 10.4413 12.5549 10.492 12.5667 10.5407V11.5C12.5667 11.5835 12.5998 11.6635 12.6588 11.7225C12.7178 11.7815 12.7979 11.8147 12.8813 11.8147C12.9648 11.8147 13.0448 11.7815 13.1038 11.7225C13.1628 11.6635 13.196 11.5835 13.196 11.5V10.5913L13.4807 10.316L14.4327 11.6713C14.4564 11.7052 14.4866 11.734 14.5215 11.7562C14.5565 11.7783 14.5954 11.7934 14.6361 11.8005C14.6769 11.8076 14.7186 11.8067 14.759 11.7977C14.7993 11.7886 14.8375 11.7718 14.8713 11.748C14.9052 11.7242 14.934 11.694 14.9562 11.6591C14.9783 11.6242 14.9934 11.5853 15.0005 11.5445C15.0076 11.5038 15.0067 11.4621 14.9977 11.4217C14.9886 11.3814 14.9718 11.3432 14.948 11.3093L13.9387 9.87267V9.87333ZM11.9667 11.156H10.9933V8.698C10.9896 8.61714 10.9549 8.54082 10.8963 8.48492C10.8378 8.42901 10.7599 8.39781 10.679 8.39781C10.5981 8.39781 10.5202 8.42901 10.4617 8.48492C10.4031 8.54082 10.3684 8.61714 10.3647 8.698V11.4707C10.3647 11.644 10.5047 11.7853 10.6787 11.7853H11.9667C12.0501 11.7853 12.1302 11.7522 12.1892 11.6932C12.2482 11.6342 12.2813 11.5541 12.2813 11.4707C12.2813 11.3872 12.2482 11.3072 12.1892 11.2482C12.1302 11.1892 12.0501 11.156 11.9667 11.156ZM8.062 10.4287L8.526 9.29L8.95133 10.428L8.062 10.4287ZM9.744 10.7533L9.74533 10.7427C9.74518 10.6634 9.71491 10.5871 9.66067 10.5293L8.96333 8.66267C8.9341 8.57371 8.87842 8.4958 8.80373 8.43933C8.72903 8.38286 8.63889 8.35054 8.54533 8.34667C8.45109 8.34625 8.35896 8.37454 8.2812 8.42778C8.20343 8.48101 8.14372 8.55666 8.11 8.64467L7.002 11.3613C6.97044 11.4386 6.97087 11.5252 7.00319 11.6022C7.0355 11.6791 7.09707 11.7401 7.17433 11.7717C7.2516 11.8032 7.33824 11.8028 7.41519 11.7705C7.49215 11.7382 7.55311 11.6766 7.58467 11.5993L7.806 11.0573H9.186L9.38467 11.5907C9.39822 11.6305 9.41963 11.6673 9.44764 11.6987C9.47565 11.7301 9.50969 11.7556 9.54773 11.7737C9.58578 11.7917 9.62705 11.802 9.66912 11.8038C9.71119 11.8056 9.75319 11.7989 9.79264 11.7842C9.83209 11.7695 9.86818 11.747 9.89877 11.718C9.92937 11.6891 9.95385 11.6543 9.97076 11.6158C9.98767 11.5772 9.99667 11.5357 9.99723 11.4935C9.99779 11.4514 9.98989 11.4097 9.974 11.3707L9.744 10.7533ZM7.52933 8.70133C7.52933 8.61799 7.49627 8.53806 7.43741 8.47907C7.37854 8.42007 7.29867 8.38684 7.21533 8.38667H5.052C4.96855 8.38667 4.88851 8.41982 4.8295 8.47883C4.77049 8.53784 4.73733 8.61788 4.73733 8.70133C4.73733 8.78479 4.77049 8.86482 4.8295 8.92384C4.88851 8.98285 4.96855 9.016 5.052 9.016H5.82533V11.5067C5.82533 11.5901 5.85849 11.6702 5.9175 11.7292C5.97651 11.7882 6.05655 11.8213 6.14 11.8213C6.22346 11.8213 6.30349 11.7882 6.3625 11.7292C6.42152 11.6702 6.45467 11.5901 6.45467 11.5067V9.016H7.21467C7.29812 9.016 7.37816 8.98285 7.43717 8.92384C7.49618 8.86482 7.52933 8.78479 7.52933 8.70133Z"
    fill="black" />
</svg>
