<svg width="24" height="24" viewBox="0 0 24 24" fill="none" xmlns="http://www.w3.org/2000/svg">
<path d="M11.6723 20.0547C11.8752 20.0787 12.0611 20.1849 12.185 20.3506C12.3671 20.5943 12.3545 20.8775 12.2582 21.1475C12.2312 21.223 12.192 21.3273 12.1381 21.4502C12.0312 21.6938 11.863 22.0226 11.6205 22.3564C11.139 23.0195 10.2953 23.7822 9.0004 23.7822C7.71399 23.7822 6.84254 23.0288 6.3334 22.3779C6.0756 22.0483 5.89142 21.723 5.77188 21.4814C5.60034 21.1349 5.42694 20.7223 5.67911 20.3662C5.81973 20.1678 6.04821 20.0498 6.29141 20.0498L11.6723 20.0547ZM7.59512 21.5498C7.94936 21.9678 8.40719 22.2822 9.0004 22.2822C9.59466 22.2822 10.0255 21.9663 10.349 21.5498H7.59512ZM12.6234 17.8672C13.0015 17.9057 13.2973 18.225 13.2973 18.6133C13.2973 19.0015 13.0015 19.3209 12.6234 19.3594L5.3295 19.3633C4.91528 19.3633 4.5795 19.0275 4.5795 18.6133C4.5795 18.1991 4.91528 17.8633 5.3295 17.8633L12.6234 17.8672ZM8.9379 2.34082C13.2126 2.34084 16.6964 5.75935 16.6967 9.99902C16.6967 11.6647 15.7163 13.4442 14.852 14.7129C14.4058 15.3677 13.9611 15.9286 13.6283 16.3252C13.4616 16.5239 13.3218 16.6821 13.2231 16.792C13.0324 17.0042 12.8246 17.2021 12.518 17.2021H5.38321C5.08335 17.2021 4.87547 17.0108 4.68497 16.8057C4.5851 16.6981 4.44422 16.5427 4.27579 16.3477C3.93959 15.9584 3.49008 15.4066 3.03946 14.7568C2.16431 13.4949 1.17911 11.7168 1.17911 9.99902C1.17935 5.75934 4.66321 2.34082 8.9379 2.34082ZM8.9379 3.84082C5.47122 3.84082 2.67935 6.60804 2.67911 9.99902C2.67911 11.2246 3.42101 12.674 4.27286 13.9023C4.68563 14.4975 5.10018 15.0067 5.41153 15.3672C5.52746 15.5014 5.6295 15.6136 5.71036 15.7021H12.184C12.2642 15.6114 12.3646 15.4966 12.4789 15.3604C12.7889 14.9909 13.2018 14.4713 13.6127 13.8682C14.4627 12.6205 15.1967 11.1723 15.1967 9.99902C15.1964 6.60805 12.4046 3.84084 8.9379 3.84082ZM9.09219 8.52051C9.98156 8.52051 10.7244 8.90265 11.1557 9.55371C11.5787 10.1927 11.6436 11.002 11.3744 11.7539C11.2265 12.1668 10.9843 12.5551 10.6527 12.9023C10.8757 12.9328 11.1157 12.9581 11.3744 12.9707L11.9535 12.9863C12.3317 13.0248 12.6264 13.3441 12.6264 13.7324C12.6262 14.1206 12.3316 14.4401 11.9535 14.4785L11.3139 14.4688C10.3824 14.4224 9.5804 14.2595 8.91153 14.0068C8.11453 14.3069 7.14172 14.4824 5.99844 14.4824C5.5844 14.4823 5.24858 14.1465 5.24844 13.7324C5.24844 13.3183 5.58431 12.9825 5.99844 12.9824C6.4477 12.9824 6.85088 12.9499 7.21231 12.8975C6.89137 12.5376 6.67085 12.1313 6.55508 11.6934C6.13418 10.0998 7.26964 8.52084 9.09219 8.52051ZM9.09219 10.0205C8.24863 10.0208 7.83724 10.6726 8.00528 11.3096C8.0863 11.6161 8.34556 12.022 8.91544 12.3574C9.52097 12.0145 9.83926 11.5921 9.96231 11.249C10.2022 10.5791 9.79794 10.0205 9.09219 10.0205ZM20.349 6.54199C20.7631 6.54212 21.099 6.87786 21.099 7.29199V8.26367H22.0707C22.4849 8.26367 22.8207 8.59946 22.8207 9.01367C22.8207 9.42789 22.4849 9.76367 22.0707 9.76367H21.099V10.7363C21.0988 11.1502 20.763 11.4862 20.349 11.4863C19.935 11.4863 19.5993 11.1503 19.599 10.7363V9.76367H18.6264C18.2122 9.76357 17.8764 9.42782 17.8764 9.01367C17.8764 8.59952 18.2122 8.26377 18.6264 8.26367H19.599V7.29199C19.599 6.87778 19.9348 6.54199 20.349 6.54199ZM17.9125 0.217773C18.3267 0.217773 18.6625 0.55356 18.6625 0.967773V2.34082H19.8588C20.2652 2.36166 20.6088 2.66657 20.6088 3.09082C20.6088 3.51507 20.2652 3.81998 19.8588 3.84082H18.6625V5.21387C18.6625 5.62804 18.3267 5.96387 17.9125 5.96387C17.4983 5.96387 17.1626 5.62804 17.1625 5.21387V3.84082H15.9662C15.5521 3.84069 15.2162 3.50495 15.2162 3.09082C15.2162 2.67669 15.5521 2.34095 15.9662 2.34082H17.1625V0.967773C17.1625 0.55356 17.4983 0.217773 17.9125 0.217773Z" fill="#9C9EB0"/>
</svg>
