<svg viewBox="0 0 18 18" fill="none" xmlns="http://www.w3.org/2000/svg">
  <path fill-rule="evenodd" clip-rule="evenodd"
    d="M6.75 1.5C5.92157 1.5 5.25 2.17157 5.25 3V4.5H2.25C1.83579 4.5 1.5 4.83579 1.5 5.25C1.5 5.66421 1.83579 6 2.25 6H2.99996C2.99998 6.01904 3.00072 6.03822 3.00221 6.05752L3.69894 15.115C3.75906 15.8965 4.41072 16.5 5.19452 16.5H12.8055C13.5893 16.5 14.2409 15.8965 14.3011 15.115L14.9978 6.05752C14.9993 6.03823 15 6.01904 15 6H15.75C16.1642 6 16.5 5.66422 16.5 5.25C16.5 4.83579 16.1642 4.5 15.75 4.5L12.75 4.5V3C12.75 2.17157 12.0784 1.5 11.25 1.5H6.75ZM11.25 4.5V3H6.75V4.5H11.25ZM13.4978 6L4.50222 6L5.19452 15H12.8055L13.4978 6ZM8.25 8.25C8.25 7.83579 7.91421 7.5 7.5 7.5C7.08579 7.5 6.75 7.83579 6.75 8.25V12.75C6.75 13.1642 7.08579 13.5 7.5 13.5C7.91421 13.5 8.25 13.1642 8.25 12.75V8.25ZM11.25 8.25C11.25 7.83579 10.9142 7.5 10.5 7.5C10.0858 7.5 9.75 7.83579 9.75 8.25V12.75C9.75 13.1642 10.0858 13.5 10.5 13.5C10.9142 13.5 11.25 13.1642 11.25 12.75V8.25Z"
    fill="currentColor" />
</svg>
